<svg xmlns="http://www.w3.org/2000/svg" viewBox="0 0 167.46 40.24"><defs><style>.cls-1{fill:#D9FF3B;}</style></defs><title>logo</title><g id="Layer_2" data-name="Layer 2"><g id="Layer_1-2" data-name="Layer 1"><path class="cls-1" d="M61.39,4a.8.8,0,0,1-.21.59,1.15,1.15,0,0,1-.86.4.34.34,0,0,0,.13.2.48.48,0,0,1,.12.49,1.59,1.59,0,0,1-.09.33c0,.18-.1.4-.18.65a.51.51,0,0,1-.59.34.54.54,0,0,0,.06.35.31.31,0,0,1,0,.33,1.08,1.08,0,0,1-.43.21.83.83,0,0,0-.39.22c-.86.85-1.72,1.77-2.6,2.78s-1.71,2-2.48,2.91A14.17,14.17,0,0,0,53,15a9.82,9.82,0,0,1-1,1.19c-.77.84-1.55,1.66-2.35,2.44S48.07,20.16,47.34,21h8.93a.26.26,0,0,1,.24.12.25.25,0,0,1,0,.25.82.82,0,0,1-.38.53,3.47,3.47,0,0,1-.65.29,5.06,5.06,0,0,1-.66.15,2.94,2.94,0,0,0-.4.08.9.9,0,0,0,.3.11l.42.09a.89.89,0,0,1,.34.14.28.28,0,0,1,.11.28c0,.1,0,.16-.07.17a.13.13,0,0,0-.08.07.87.87,0,0,1-.71,0,2.45,2.45,0,0,0,0,.27.48.48,0,0,1-.08.29,7.48,7.48,0,0,0,.84.08,3.76,3.76,0,0,1,.87.14l-.08.46a1.49,1.49,0,0,1-.52.11,2.79,2.79,0,0,0-.55.08.48.48,0,0,0-.13.23.25.25,0,0,1-.2.17l-1.21.22-1.32.21-1.11.16-.54.06-2.51-.25H46.27a1,1,0,0,1-.32-.08,1.08,1.08,0,0,0-.36-.07H41a.42.42,0,0,1-.08-.47.48.48,0,0,0-.26-.06.53.53,0,0,1-.3-.09.8.8,0,0,1-.12-.34,1,1,0,0,1,0-.37,6.36,6.36,0,0,0,.13-.8c0-.27.06-.56.09-.85a.63.63,0,0,0-.07-.25.42.42,0,0,1,0-.33,2,2,0,0,1,.48-.7c.31-.36.64-.75,1-1.16s.72-.8,1.07-1.17.57-.6.67-.72c.45-.58,1-1.28,1.77-2.11s1.5-1.63,2.29-2.41a6.11,6.11,0,0,0,.61-.67,6.13,6.13,0,0,1,.7-.73A25.71,25.71,0,0,0,52.21,9L44.89,9A3.07,3.07,0,0,1,44.44,9a.29.29,0,0,1-.28-.37.71.71,0,0,1,.23-.23l.25-.16a.47.47,0,0,0,.08-.15.5.5,0,0,1,.13-.22l.41-.12.57-.12a.25.25,0,0,1,0-.12s0-.06-.12-.06-.16,0-.17,0-.08,0-.2,0-.36-.11-.29-.33a.71.71,0,0,1,.37-.49,1.44,1.44,0,0,1,.38-.18.19.19,0,0,1,.19.09q0,.09.18,0A.26.26,0,0,0,46,6.35a1.17,1.17,0,0,0-.42,0,4,4,0,0,1-.51,0,.73.73,0,0,1-.47-.15l.08-.38a.68.68,0,0,1,.26-.12l.32-.09-.18-.17a.22.22,0,0,1,0-.24.37.37,0,0,1,.37-.34,1.85,1.85,0,0,0,.48-.09c-.09-.08-.1-.22,0-.41a1,1,0,0,1,.27-.23.75.75,0,0,1,.4-.14l1.23-.06,1.36-.06,1.13,0h.54L54.53,4a1.25,1.25,0,0,0,.32-.05l.36-.07c.24-.05.52-.09.83-.13l.89-.1.75-.08.39,0,.42,0,.83.06,1,.07.83.08.14.11ZM42.05,20.81c-.16.17-.34.34-.55.53a1,1,0,0,0-.34.43c0,.11,0,.18.05.22a.42.42,0,0,0,.18.06A7.88,7.88,0,0,1,42.05,20.81Zm.14,3,0-.12h-.28l0,.12Zm.58-.21a.6.6,0,0,0-.29.06c-.07,0-.08.06,0,.06a.38.38,0,0,0,.17-.06A.35.35,0,0,1,42.77,23.63Zm1.88-.31,0-.13h-.21l0,.13Zm.87-1.48,0-.13H44.8l0,.13ZM47.39,18a1.59,1.59,0,0,1-.36.23,2.36,2.36,0,0,0-.31.17l-.62.73c-.22.26-.43.5-.65.73l1-.95C46.83,18.62,47.13,18.32,47.39,18ZM48.65,5.39l-2,.11c-.44,0-.8,0-1.07,0,.52,0,1,0,1.55,0ZM47,17a.37.37,0,0,1-.25-.09l-.5.71c-.17.25-.32.48-.44.68a6.77,6.77,0,0,1,.6-.65A4.89,4.89,0,0,0,47,17Zm5-8.93-.13-.19L51.05,8c-.28,0-.6.05-1,.06l-1.3.06L47,8.17h1.08Zm-1.48,5.07L48.9,14.74a6.25,6.25,0,0,0-1.32,1.75Zm-1.48,4.48-.09,0-.15.22.1,0Zm2.35,4.11-.62-.12a3.36,3.36,0,0,0-.5-.06,4.33,4.33,0,0,0-.55.06l-.74.12Zm-2.14-4.33-.09,0L49,17.6l.1.06Zm2-12.14.06-.12h-.68l0,.12Zm2.44,4c-.39.57-.82,1.18-1.29,1.82A13,13,0,0,1,50.75,13a8.25,8.25,0,0,0,1.75-1.85C52.89,10.55,53.32,9.92,53.77,9.29Zm.46,14-.87-.09a3.1,3.1,0,0,0,.65.09ZM55.51,7.8h-.77s0,.08,0,.12,0,.09.05.13l.38-.1A1,1,0,0,0,55.51,7.8Zm.73-1.94,0-.13H56l0,.13Zm2.26,0,0-.16-.61.1,0,.12Z"/><path class="cls-1" d="M75.93,13.43a7.78,7.78,0,0,1-.25.78c-.13.37-.26.72-.39,1.07s-.3.8-.51,1.36l-.61,2.63a1.91,1.91,0,0,1-.16.32,1.65,1.65,0,0,0-.16.36,3.88,3.88,0,0,1-.72,1.48,10.73,10.73,0,0,1-1.32,1.51,17.92,17.92,0,0,1-1.6,1.41,16.48,16.48,0,0,1-1.53,1.1l-.2.05a1.11,1.11,0,0,0-.29.07,9,9,0,0,1-2.46.7,20.89,20.89,0,0,1-2.36.14l-1.12,0a4.58,4.58,0,0,1-1.07-.17A4.22,4.22,0,0,1,60,25.68a8.54,8.54,0,0,1-1.34-1.13c-.25-.24-.49-.48-.72-.69a1.7,1.7,0,0,1-.45-.85,14.42,14.42,0,0,1-.28-3.93,24.61,24.61,0,0,1,.58-3.95q.07-.37.21-.84c.1-.31.19-.62.28-.94s.17-.61.25-.88a5.85,5.85,0,0,0,.13-.62,3.36,3.36,0,0,1,.21-.8,7.73,7.73,0,0,1,.43-1,4.26,4.26,0,0,1,.53-.77,5.51,5.51,0,0,0,.55-.84c.14-.25.31-.53.51-.85a11.34,11.34,0,0,1,.73-1,8.55,8.55,0,0,1,.93-1,6.54,6.54,0,0,1,1.19-.85,1.52,1.52,0,0,0,.64-.72,1.62,1.62,0,0,1,.7-.76c.16-.08.36-.16.59-.25l.73-.24a6,6,0,0,1,.75-.2,2.73,2.73,0,0,1,.65-.08,6.78,6.78,0,0,1,.87.14c.46.09.94.2,1.46.32l2,.47c.1,0,.16,0,.18-.05s.08,0,.19,0a.88.88,0,0,1,.39.14,1.48,1.48,0,0,0,.39.17,2.92,2.92,0,0,1,1.55.93,4.81,4.81,0,0,1,.89,1.56A6.33,6.33,0,0,1,76.14,8a12.35,12.35,0,0,1,0,1.73.47.47,0,0,0,.11.36.48.48,0,0,1,.07.41c0,.23-.06.5-.09.82s-.06.63-.1.93S76,12.8,76,13A3.15,3.15,0,0,1,75.93,13.43ZM58.37,20.91a1.61,1.61,0,0,0,0-.53,3.39,3.39,0,0,1-.07-.49,1.32,1.32,0,0,0,0,.49C58.29,20.57,58.33,20.74,58.37,20.91ZM59,18.74A5.08,5.08,0,0,1,59.1,18c0-.2.06-.4.07-.59l0-.55a3.28,3.28,0,0,0-.07-.65c0,.43-.05.87-.05,1.31S59.06,18.35,59,18.74Zm1.15-7.45c-.11.42-.26.9-.46,1.46s-.39,1.19-.59,1.91l.18-.09a8.13,8.13,0,0,0,.51-1.64C60,12.31,60.07,11.77,60.18,11.29Zm1.46,3.43L62,13.15h-.15l-.38,1.57Zm-.07,1.55a1.54,1.54,0,0,0,0-.46c0-.19,0-.35,0-.47a1.53,1.53,0,0,0-.06.47A1.61,1.61,0,0,0,61.57,16.27ZM64.65,6a8.53,8.53,0,0,0-.86.62,6.13,6.13,0,0,0-.86.83,7,7,0,0,0-.72,1,3.15,3.15,0,0,0-.43,1,8.15,8.15,0,0,0,.57-.8c.19-.29.38-.58.59-.87s.44-.58.71-.89A5.93,5.93,0,0,1,64.65,6ZM62.81,21.31a2.14,2.14,0,0,1-.37-.67c-.07-.21-.13-.4-.17-.57,0,.11,0,.23,0,.37a2.65,2.65,0,0,0,.06.42,1.2,1.2,0,0,0,.15.34A.32.32,0,0,0,62.81,21.31Zm1.51,1.57a3.82,3.82,0,0,1-.68-.06L63,22.7a1.49,1.49,0,0,0,.23.27.38.38,0,0,0,.28.13,1.75,1.75,0,0,0,.42-.08Zm6.49-11.71c.07-.29.13-.64.19-1.06a1.71,1.71,0,0,0,0-.92.94.94,0,0,0-.41-.29,6.74,6.74,0,0,0-.79-.33,7,7,0,0,0-.87-.24,3.06,3.06,0,0,0-3.06.91,9.81,9.81,0,0,0-1.51,2.58l-1.08,4.26c0,.27-.11.67-.17,1.2A9.33,9.33,0,0,0,63,18.87a6.26,6.26,0,0,0,.25,1.45c.15.43.38.68.71.74a2,2,0,0,0,.58.05l.51,0h.54a2.66,2.66,0,0,0,.61-.07,3.07,3.07,0,0,0,.69-.3,2.49,2.49,0,0,0,.71-.68,3.89,3.89,0,0,0,.28-.39l.25-.38c.27-.54.53-1.15.8-1.86s.51-1.42.74-2.16.44-1.47.64-2.18S70.68,11.73,70.81,11.17ZM64.49,24.92l-.34,0-.43.1.1-.5a.51.51,0,0,1,.33.13Zm.15-16.75a4,4,0,0,1-.42.39c-.16.13-.3.24-.42.32a.74.74,0,0,1,.14.38c.11-.17.24-.35.36-.55S64.54,8.34,64.64,8.17ZM66.1,21.84l-.61.1a2.16,2.16,0,0,1-.56,0,1.56,1.56,0,0,1,.41.06,1.41,1.41,0,0,0,.37.06A.64.64,0,0,0,66,22C66.12,21.93,66.15,21.88,66.1,21.84Zm.63,1a4.76,4.76,0,0,1-.64.37l-.54.28a5.17,5.17,0,0,0,.64-.28A2.25,2.25,0,0,0,66.73,22.85Zm.75-15.51,0-.12-.61.24,0,.13Zm.08-3.74a.51.51,0,0,1,0-.17c0-.07,0-.13,0-.17a2.42,2.42,0,0,1-.35.11,2.08,2.08,0,0,0-.35.11,1,1,0,0,1,.32.06A1.05,1.05,0,0,0,67.56,3.6Zm1.25,16.22h-.12l-.65,1,.1.06ZM69.49,6.5l0-.15h-.46l0,.15Zm1.29-1.85a.51.51,0,0,0-.31-.12,1.85,1.85,0,0,0-.54.15,1.77,1.77,0,0,1-.62.15h1.76A1.65,1.65,0,0,1,70.78,4.65ZM70.67,6.5l0-.12-.34-.09-.06.12Zm1.23,4.15a1.52,1.52,0,0,0-.13-.28l-.91,4c.17-.57.34-1.21.53-1.91S71.75,11.12,71.9,10.65Zm1-5.6-.54-.46-.09.12.54.43Zm.33,6.52v-.18a3.18,3.18,0,0,0-.13-.51c-.06-.18-.11-.35-.16-.51l-.11.43a.5.5,0,0,0,0,.37.54.54,0,0,1,.07.34c0,.25,0,.49,0,.73a4.54,4.54,0,0,1,0,.66l.21-1Zm1.86-4.82-.19-.62a.68.68,0,0,0-.37-.49,2.71,2.71,0,0,0,.23.57A5.37,5.37,0,0,0,75.09,6.75Zm.14.31,0-.25-.12,0,0,.21Z"/><path class="cls-1" d="M104,12.47s0,.15-.1.32-.09.37-.15.59-.12.44-.19.67-.15.43-.22.61a1.61,1.61,0,0,0-.12.23,1.67,1.67,0,0,0-.08.3l-.7,2.94-.2.64-.4,1.27c-.15.46-.29.88-.41,1.27a3.88,3.88,0,0,0-.17.68l-.62,2.56a1.16,1.16,0,0,1-.21.39.51.51,0,0,1-.38.26.3.3,0,0,1-.25-.1.57.57,0,0,1-.13-.24.51.51,0,0,0-.41.27,1.51,1.51,0,0,0-.14.48,4.51,4.51,0,0,1-.1.53.82.82,0,0,1-.31.45h-.37a.36.36,0,0,1-.11-.32,2,2,0,0,1,.11-.44c.06-.15.11-.31.17-.49a1.22,1.22,0,0,0,0-.54.21.21,0,0,0-.06.08s-.05,0-.15,0-.24-.08-.35-.25a2.18,2.18,0,0,0-.3.64,3.22,3.22,0,0,1-.3.66H97l-.14-.21a2.34,2.34,0,0,0-.2.58c0,.21-.09.41-.14.61a3.22,3.22,0,0,1-.18.58,1.8,1.8,0,0,1-.32.55h-.37a.09.09,0,0,1,0-.07l-.07-.12c.11-.47.22-.94.32-1.39s.2-.93.29-1.42a1,1,0,0,1-.25.23.64.64,0,0,1-.32.14.32.32,0,0,1-.17-.4.47.47,0,0,0-.12-.13.4.4,0,0,1-.11-.12,2.26,2.26,0,0,0,.06-.53,1.27,1.27,0,0,0-.06-.43H95.1a1,1,0,0,0-.37.45.8.8,0,0,0-.09.42,1.37,1.37,0,0,1,0,.34.85.85,0,0,1-.13.46.33.33,0,0,1-.11.08h-.2c-.16,0-.27-.05-.31-.17a.92.92,0,0,1-.07-.38,2.24,2.24,0,0,1,.07-.44,1.31,1.31,0,0,1,.08-.27s.11-.31.29-.81.38-1,.59-1.62.41-1.13.59-1.62a4.2,4.2,0,0,0,.26-.84c.15-.62.26-1.16.35-1.63s.17-1,.25-1.47.19-1.05.33-1.64.31-1.3.55-2.15c-.51.78-1.08,1.7-1.71,2.75s-1.27,2.19-1.93,3.4c-.52.95-1.06,1.88-1.64,2.8s-1.17,1.84-1.8,2.76a.52.52,0,0,1-.18.13.8.8,0,0,0-.21.15c0,.1,0,.25-.1.43a3.42,3.42,0,0,1-.93.39,3.83,3.83,0,0,1-.94.17h-.33l-.62-.05-.74-.06-.7-.06a.46.46,0,0,1-.28-.13,1.25,1.25,0,0,1-.26-.25.39.39,0,0,1,0-.29.61.61,0,0,0,0-.35,1,1,0,0,0-.1-.24.3.3,0,0,1,0-.23,4.18,4.18,0,0,0,0-.94c0-.3-.09-.6-.16-.91s-.13-.62-.2-.94A5,5,0,0,1,84.21,20c0-.21,0-.51,0-.91s0-.85.08-1.35,0-1,0-1.51,0-1,0-1.39c0-.15,0-.37-.08-.68s-.09-.66-.16-1.05-.13-.8-.2-1.21-.13-.79-.18-1.14l-1.55,6.52-1,2.47-.58,2.57a1.1,1.1,0,0,0-.06.29c0,.15,0,.32,0,.51s-.05.36-.06.51a1.43,1.43,0,0,1,0,.29,3.19,3.19,0,0,0-.08.38,3.81,3.81,0,0,1-.18.58,3,3,0,0,1-.31.56.49.49,0,0,1-.42.24c-.1,0-.16,0-.17-.09a.29.29,0,0,0-.09-.15.53.53,0,0,1-.39.15c-.13,0-.19,0-.2-.07a1.41,1.41,0,0,0-.19-.3,1,1,0,0,0-.19.14.23.23,0,0,0-.06.12c0,.06,0,.14,0,.25a3.13,3.13,0,0,1-.13.51,1.3,1.3,0,0,0,0,.28,3.39,3.39,0,0,1-.08.39,1.2,1.2,0,0,1-.17.34.47.47,0,0,1-.37.14.28.28,0,0,1-.24-.14A1.61,1.61,0,0,1,77,26.9c0-.12,0-.23-.07-.32s-.07-.14-.13-.14-.13,0-.09,0,0,0-.09,0a.26.26,0,0,1-.22-.12.24.24,0,0,1-.07-.22,4.81,4.81,0,0,1,.15-.48,5.84,5.84,0,0,0,.15-.6,1.5,1.5,0,0,0,0-.31,2.37,2.37,0,0,1,0-.43s-.06,0,0-.05,0-.07,0-.11a.6.6,0,0,0-.1.25,2.79,2.79,0,0,1-.09.34.57.57,0,0,1-.52.25,2.39,2.39,0,0,0-.74.12.25.25,0,0,0-.1.12.71.71,0,0,1-.16.22.36.36,0,0,0-.14.09.32.32,0,0,1-.25.09.26.26,0,0,1-.22-.07l-.17-.2,3.38-14.68.19-.45c.1-.26.21-.54.32-.85s.22-.59.33-.85a2.54,2.54,0,0,0,.15-.45,4.74,4.74,0,0,0,.12-.63c0-.38.11-.8.18-1.25s.13-.88.18-1.27.1-.62.12-.68a1.07,1.07,0,0,1,.23-.48.51.51,0,0,1,.39-.23.26.26,0,0,1,.21.08l.08.13a.57.57,0,0,0,.37-.3.44.44,0,0,1,.44-.22c.11,0,.17,0,.21.05a.31.31,0,0,1,.08.11c0,.22,0,.45,0,.69s0,.49,0,.76a.94.94,0,0,0,.23-.36,2.85,2.85,0,0,1,.12-.29.5.5,0,0,1,.13-.2c0-.06.14-.08.29-.08A.31.31,0,0,1,82,4a.28.28,0,0,0,.11.08,2.86,2.86,0,0,1,.15.4,1.34,1.34,0,0,1,.07.53,5.55,5.55,0,0,1-.21,1.47A7.09,7.09,0,0,0,81.85,8q.23-.27.48-.63a5.41,5.41,0,0,0,.45-.72L83,6c.11-.32.24-.66.39-1a7,7,0,0,1,.52-1q.3-.45.6-.45c.11,0,.16,0,.18.05a.22.22,0,0,0,.08.1A1.52,1.52,0,0,0,85,3.46a.31.31,0,0,1,.26-.14c.1,0,.16,0,.19.1a.38.38,0,0,0,.09.15,1.15,1.15,0,0,1,.36-.36.82.82,0,0,1,.28,0,3.15,3.15,0,0,1,.45,0l.54.08a2.92,2.92,0,0,1,.64,1.25c.12.48.23.94.33,1.35h0a1.58,1.58,0,0,0,0-.42c0-.18-.05-.35-.07-.53A3.5,3.5,0,0,0,88,4.46a.54.54,0,0,1,0-.28.37.37,0,0,1,.14-.24l.28-.16a.62.62,0,0,1,.4.51,3,3,0,0,1,.08.76q0,1.25-.09,2.7c-.06,1-.13,1.94-.2,2.87a5.15,5.15,0,0,0,0,1,8.12,8.12,0,0,1,.06,1.07c0,.94,0,1.91-.1,2.89s-.08,2-.09,2.95c.27-.43.57-.93.89-1.49a17.35,17.35,0,0,0,1-2c.06-.15.15-.34.27-.59s.25-.51.38-.77.25-.54.38-.82.25-.53.35-.76c.2-.56.41-1.18.62-1.85a16,16,0,0,1,.72-1.92,5.08,5.08,0,0,1,.54-.94l.74-1.13A10.76,10.76,0,0,0,95,5.16a3,3,0,0,0,.33-1,.48.48,0,0,1,.22-.29.65.65,0,0,1,.29-.14c.11,0,.16,0,.18.08s0,.08.08.08l.56-.56A1,1,0,0,1,97.3,3a2.7,2.7,0,0,1,.61.16,2.4,2.4,0,0,0,.61.15,1,1,0,0,0,.35-.08,1.23,1.23,0,0,1,.38-.07.37.37,0,0,1,.38.23,2.72,2.72,0,0,0,.14.29l.2.06a.67.67,0,0,0,.23,0c.11,0,.17,0,.18-.07s.08-.08.19-.08.31.05.27.15a.74.74,0,0,0,0,.47,5.18,5.18,0,0,0,.51-.4,3.27,3.27,0,0,1,.51-.4s.07,0,.15,0a.37.37,0,0,0,.25-.05,1.24,1.24,0,0,0,.32-.21.47.47,0,0,1,.31-.16.75.75,0,0,1,.41.22l.42.34c0,.2-.07.42-.12.65a5.05,5.05,0,0,0-.08.68l.08.06.08.06a.48.48,0,0,0,.23-.42,1,1,0,0,1,.11-.48A.51.51,0,0,1,104.3,4l.3,0a2,2,0,0,0,.14-.23.86.86,0,0,1,.21-.23h.25c.08.12.14.2.16.24s0,.41,0,.68l-.06.81c0,.27,0,.5-.07.71a2.68,2.68,0,0,1-.06.37l-.72,3.18a1.43,1.43,0,0,0,0,.57,3.69,3.69,0,0,1,0,.82q-.06.35-.18.9C104.09,12.13,104,12.37,104,12.47ZM78.24,20.78l.56-2.44h-.12l-.56,2.44Zm1.88-10.26L80,10.37a10.64,10.64,0,0,0-.63,1.51A12.77,12.77,0,0,0,79,13.3l.57-1.42C79.74,11.41,79.93,11,80.12,10.52Zm.1,5.38.27-1.21h-.13l-.29,1.21ZM82,14.69h-.12l-.81,3.16h.12Zm-.35-3.8.18-.74h-.15l-.16.74Zm1.48-.71.06-.18h-.16l0,.18Zm1.72-2.93A4.91,4.91,0,0,1,85,6.58c.05-.21.08-.43.12-.63a.45.45,0,0,1,0,.29,3.45,3.45,0,0,1-.14.34,1.06,1.06,0,0,0-.09.36A.37.37,0,0,0,84.88,7.25Zm1,9.82.1-.74h-.16l-.1.74Zm0,.22,0-.19h-.12l-.06.19ZM86.49,24a.82.82,0,0,0,.19-.22.18.18,0,0,0,0-.16s0-.08-.07-.13a.36.36,0,0,1,0-.18Zm.59-19.1,0-.25-.12.06.06.19Zm1.79,18.41h-.12l-.2.44h.12Zm1.81-1.17h-.12L90,23l.1.07Zm.47-5.72H91l-.25.74h.12Zm.09,0,0-.18h-.13l0,.18Zm1,2.91h-.13l-.41.62.13.06Zm2.32-9.09.08-.34h-.13l-.11.34Zm.17-.37.08-.37h-.16l-.07.37Zm.46-1.05H95.1l-.31.65h.12Zm2,15.42,1.28-5.47h-.16l-1.25,5.47Zm3.34-14.92.16-.65h-.15l-.17.65Zm2.38,2.65h-.12l-.3,1h.12Zm.3-1.17a4.69,4.69,0,0,0,.43-1.66,11.32,11.32,0,0,1,.25-1.65,11.58,11.58,0,0,0-.37,1.65C103.44,9.65,103.34,10.2,103.21,10.74Z"/><path class="cls-1" d="M121.59,21.25a3.25,3.25,0,0,1-.82,1.39A11.26,11.26,0,0,1,119.29,24a12.27,12.27,0,0,1-1.7,1.06,8,8,0,0,1-1.5.61l-.61.13-.75.14-.68.11-.35.05h-3.9l-.41,0-.77,0-.77.05-.45,0-.48,0-1,0H103.6a.85.85,0,0,1-.17-.39c0-.09-.13-.2-.39-.32a.38.38,0,0,0-.27,0,.4.4,0,0,1-.28,0,.93.93,0,0,1-.41-.2,2.91,2.91,0,0,0-.41-.27l.13-.46a6.3,6.3,0,0,1,.78-.28,5,5,0,0,0,.78-.28.79.79,0,0,0-.3-.12,1.07,1.07,0,0,1-.36-.15l.11-.47a1.44,1.44,0,0,1,.31-.19.79.79,0,0,0,.29-.18.41.41,0,0,1,0-.49,1,1,0,0,1,.58-.25l-.61-.12a2.79,2.79,0,0,0-.48-.06,1.36,1.36,0,0,0-.29,0,5.24,5.24,0,0,1-.76,0,.12.12,0,0,0,0-.14.27.27,0,0,1,0-.23c0-.13.14-.23.36-.31A4.46,4.46,0,0,1,103,21l.78-.16a2,2,0,0,0,.49-.12,1,1,0,0,1,0-.59L105,17a.48.48,0,0,1,0-.15.22.22,0,0,0,0-.09,1.49,1.49,0,0,1,0-.19,3.35,3.35,0,0,0,0-.46,2.49,2.49,0,0,1,.18-.85,3.75,3.75,0,0,0,.25-.85.31.31,0,0,0-.22-.16.43.43,0,0,1-.26-.15l.08-.4a2.09,2.09,0,0,1,.44-.23,2,2,0,0,0,.41-.24.87.87,0,0,0-.25-.21.24.24,0,0,1-.14-.25.31.31,0,0,1,.15-.19l.27-.12a1,1,0,0,1,.34-.06l.09-.06,1.12-4.86a.6.6,0,0,0-.43-.2h-.52a1.78,1.78,0,0,1-.44,0c-.11,0-.15-.13-.11-.29a.4.4,0,0,1,.29-.33,1,1,0,0,0,.4-.2c0-.1-.17-.13-.44-.09a.2.2,0,0,0,0-.11s0-.1,0-.2a.33.33,0,0,1,.19-.25l.36-.17a2,2,0,0,1,.39-.1,1,1,0,0,0,.27-.07.13.13,0,0,1,.13,0,.13.13,0,0,0,.12,0l-.47-.09a1.47,1.47,0,0,1-.44-.13l.08-.4a1.39,1.39,0,0,1,.55-.2,3.67,3.67,0,0,1,.49,0L108,4.4a.22.22,0,0,0,.07-.09.58.58,0,0,0-.35,0,1.29,1.29,0,0,1-.36,0,.33.33,0,0,1-.14,0,2.41,2.41,0,0,1-.25-.11A1.28,1.28,0,0,1,106.7,4a.63.63,0,0,1-.16-.2,3.17,3.17,0,0,1,.37-.34,1.17,1.17,0,0,1,.44-.25,1.31,1.31,0,0,1,.51,0,2.44,2.44,0,0,0,.66,0,1.28,1.28,0,0,0,.41-.19.7.7,0,0,1,.35-.12.29.29,0,0,1,.23.12l.16.22H110a1.25,1.25,0,0,0,.4-.05.3.3,0,0,0,.16-.12.47.47,0,0,1,.11-.13.37.37,0,0,1,.21,0,.21.21,0,0,1,.21.12.19.19,0,0,0,.2.13.45.45,0,0,0,.31-.16.43.43,0,0,1,.3-.15.27.27,0,0,1,.2.07.35.35,0,0,0,.24.08,1.24,1.24,0,0,0,.37-.08,1.08,1.08,0,0,1,.36-.07h5.81l.32,0,.57.13.67.17.63.18a3.58,3.58,0,0,1,.47.22,3.32,3.32,0,0,0,.47.21,1.89,1.89,0,0,1,1.26.73,3.48,3.48,0,0,1,.64,1.39,6.67,6.67,0,0,1,.17,1.61A7.8,7.8,0,0,1,124,8.82a7,7,0,0,1-.52,1.47A7.06,7.06,0,0,1,122.23,12a2.34,2.34,0,0,1-.45.36,2.52,2.52,0,0,0-.48.39,9.16,9.16,0,0,0-.68.71,8.06,8.06,0,0,1-.72.71,2.08,2.08,0,0,0,.37.32c.16.12.3.22.43.33a3.25,3.25,0,0,1,.68,1,4.23,4.23,0,0,1,.36,1.13,8.3,8.3,0,0,1,.07,1.21c0,.47,0,.93-.06,1.37s-.06.83-.09,1.16S121.6,21.18,121.59,21.25Zm-16.68,2.9a.33.33,0,0,1-.23-.34.45.45,0,0,1,.09-.17s0,0,0-.08a.66.66,0,0,0-.25.28.53.53,0,0,0,0,.28.3.3,0,0,0,.22,0A.19.19,0,0,1,104.91,24.15Zm1.2-7.66a12.64,12.64,0,0,0-.69,2.2c-.17.82-.3,1.52-.38,2.09Zm.81,6.79a2.15,2.15,0,0,0-.63,0c-.24,0-.47.06-.7.1.52,0,.85-.07,1-.07Zm-.61-7.38.23-1.08h-.12l-.27,1.08Zm1.35,8.25.06-.12h-1l0,.12Zm.88-14c-.1.33-.19.65-.28,1s-.17.65-.24,1c.07-.29.15-.6.24-.92S108.44,10.49,108.54,10.12Zm.79,1.45h-.12L109,12h.12Zm7.15,6.83a.4.4,0,0,0-.06-.24,2,2,0,0,0-.22-.37,1.93,1.93,0,0,0-.29-.35.74.74,0,0,0-.25-.18c-.56-.17-1-.28-1.26-.34s-.52-.1-.71-.12a2.26,2.26,0,0,0-.52,0,6.24,6.24,0,0,1-.71,0h-.31l-.54,0-.62,0-.57,0a9.13,9.13,0,0,1-.16,1c-.08.37-.14.7-.2,1s-.1.58-.15.88a3.35,3.35,0,0,1-.22.79l-.15.12h.53l.66-.06c.4,0,.88-.1,1.43-.19l1.74-.26,1.55-.23a5.22,5.22,0,0,0,.36-.42l.32-.46.25-.42A.87.87,0,0,0,116.48,18.4Zm-5.94-9.92h-.15l-.25.71h.15ZM112,15.31a5.3,5.3,0,0,0-.77.06l-.74.13a4.26,4.26,0,0,0,.78-.07Zm.66-3h-.61l-.62,0-.12.13a6.36,6.36,0,0,0,.85-.05A4,4,0,0,1,112.66,12.31Zm5.54-3.18-.4-.37c-.18-.16-.38-.33-.6-.5a5.73,5.73,0,0,0-.7-.43,1.53,1.53,0,0,0-.67-.18l-.45,0-.89.11-1.06.14-1,.14-.8,3.46a6,6,0,0,1,.65,0H113l.6,0H114l.41,0c.2,0,.44,0,.69,0l.82,0a3.57,3.57,0,0,0,.74-.12,1.58,1.58,0,0,0,.65-.42,2.87,2.87,0,0,0,.47-.63,5,5,0,0,0,.3-.68A5.41,5.41,0,0,0,118.2,9.13Zm-3.15,12.64,0-.31a21.11,21.11,0,0,1-2.76.53,4.88,4.88,0,0,1,.61,0l.48,0a1.31,1.31,0,0,0,.27,0l.42-.09.49-.09Zm.27-5.41,0-.12-.81-.19,0,.13Zm5.1-4.14-2.65,1a4.91,4.91,0,0,0,1.31-.32A9.31,9.31,0,0,0,120.42,12.22Zm-2.08-4.36-.2-.27h-.3a1.48,1.48,0,0,1,.25.16A.35.35,0,0,0,118.34,7.86Zm-.16,9.93,0-.25-.12.06.07.19Zm1.41-10.45.11-.4-.51-.24a4,4,0,0,0-.53-.16l.46.4C119.3,7.08,119.46,7.22,119.59,7.34Zm-.17,6.33a.51.51,0,0,0-.17.05.51.51,0,0,1-.17,0,.15.15,0,0,0,.17,0A.36.36,0,0,0,119.42,13.67Zm.62,6-.09-.09-.27.31.09.06ZM120,18.1l-.12-.62-.12,0,.11.59Zm2.16-11.6A14.72,14.72,0,0,0,121,5.41a4.5,4.5,0,0,0-1.2-.82Zm-1.94,9.24,0-.21-.12,0,0,.18Zm.54,1.18-.41-1.08-.16.06.44,1Zm.19,1.18L120.81,17l-.15,0,.19,1.09Zm.83-9.4.16-.71h-.15l-.16.71Zm.6,1.14h-.13l-.22.56h.15Z"/><path class="cls-1" d="M128.6,21.09l-.06.14a3.89,3.89,0,0,0-.11.4c-.05.22-.14.55-.26,1s-.27,1.1-.46,1.94a.81.81,0,0,1-.21.34.44.44,0,0,1-.33.16A.42.42,0,0,1,127,25c-.07-.05-.09-.17,0-.36l.36-1.79a4.4,4.4,0,0,0-.38.93c-.1.35-.16.58-.18.68a4.38,4.38,0,0,0-.12.45,1.54,1.54,0,0,0,0,.51,1.11,1.11,0,0,0,.12.15.24.24,0,0,1,0,.25l-.11.4-.12.13a.29.29,0,0,1-.21.06.18.18,0,0,1-.19-.16.18.18,0,0,0-.19-.15,1.29,1.29,0,0,0-.39.07.68.68,0,0,1-.38,0,.53.53,0,0,0-.2.16.27.27,0,0,1-.22.09c-.11,0-.16,0-.18-.08s-.07-.08-.17-.08-.16,0-.17.05-.06.05-.17.05a.58.58,0,0,1-.47-.19.44.44,0,0,1-.13-.37c-.05,0-.09,0-.14.08a1.15,1.15,0,0,1-.22.23h-.5a.52.52,0,0,0,.05-.28.72.72,0,0,1,0-.27.66.66,0,0,0-.19-.27.69.69,0,0,1-.2-.29,3,3,0,0,1,0-.87q.07-.62.15-1.14c0-.17.07-.36.13-.59s.09-.44.13-.65l-.07-.11-.06-.1a1,1,0,0,1,0-.34,1,1,0,0,0,0-.38l1.72-6.11.53-2.29a4,4,0,0,0,.14-.5c.07-.29.16-.61.26-1l.3-1.08a7.35,7.35,0,0,1,.26-.77l.18-.28a1.54,1.54,0,0,0,.17-.34,4.5,4.5,0,0,0,0-.62c0-.32,0-.6,0-.83a5.59,5.59,0,0,1,.11-.83c.06-.31.12-.61.2-.9a.39.39,0,0,1,.22-.19L127,5c0-.27.09-.58.12-.94a2.54,2.54,0,0,1,.27-1,1.12,1.12,0,0,1,.14-.18.34.34,0,0,1,.26-.1c.14,0,.22,0,.23.14a.93.93,0,0,1,0,.32c0,.13-.07.24-.1.36a.23.23,0,0,0,.09.26,1.88,1.88,0,0,0,.54-.4c.18-.19.32-.28.42-.28s.17,0,.19.08.09.07.19.07a.69.69,0,0,0,.21-.06l.34-.14.33-.14a.79.79,0,0,1,.25-.06.71.71,0,0,1,.28.08.67.67,0,0,0,.28.08.76.76,0,0,0,.42-.24.84.84,0,0,1,.4-.23.34.34,0,0,1,.25.16,2.7,2.7,0,0,1,.2.25.61.61,0,0,1,0,.4,4,4,0,0,1-.12.4c-.09.22-.18.46-.27.69a6.77,6.77,0,0,0-.2.7c-.15.53-.28,1.08-.41,1.62A15.7,15.7,0,0,0,131,8.51c0,.06,0,.15,0,.26a1.09,1.09,0,0,1,0,.36c0,.08-.05.23-.1.43s-.09.44-.16.68-.12.49-.19.72-.1.39-.12.49c-.13.39-.26.78-.4,1.17a6.27,6.27,0,0,0-.29,1.05c0,.23-.08.59-.16,1.09s-.14.93-.21,1.32a1.66,1.66,0,0,0-.05.35,5.19,5.19,0,0,1-.06.52c0,.18,0,.36-.06.51a2,2,0,0,0,0,.33L128.68,20a1.49,1.49,0,0,0,0,.53A1.73,1.73,0,0,1,128.6,21.09Zm-3.94,4a2.76,2.76,0,0,0,.06-.57,4.39,4.39,0,0,1,0-.54,5.27,5.27,0,0,0-.42,1.29A.5.5,0,0,0,124.66,25.05Zm.83-3.46.67-2.91H126l-.66,2.91Zm3.28-16a.94.94,0,0,0,0-.42c0-.18-.07-.34-.11-.51l-.75,3.24c.06-.18.13-.4.23-.64s.18-.49.26-.73.16-.44.23-.62A1.73,1.73,0,0,1,128.77,5.61Zm-.08,5.59-.12.13a.13.13,0,0,0,0,.12q-.17.62-.27,1.17c-.07.38-.16.77-.26,1.18.18-.5.36-1,.53-1.52a14.54,14.54,0,0,0,.4-1.54c.11-.52.19-1,.26-1.47s.11-.88.14-1.25c0,.16,0,.4-.1.69s-.11.61-.17.93-.12.63-.2.91S128.73,11.06,128.69,11.2Zm1.23-5.35a9.75,9.75,0,0,0-.48,1.31q.13-.35.24-.69A3.07,3.07,0,0,1,129.92,5.85Zm.64-1.7q-.33.13-.39.27c0,.09-.08.2-.14.32l.33-.29A.54.54,0,0,0,130.56,4.15Z"/><path class="cls-1" d="M146.72,22.27a.56.56,0,0,1-.15.1.58.58,0,0,0-.15.11l-2.33.09a15.68,15.68,0,0,0-2.11.22h4.23a1.3,1.3,0,0,1,.1.4,1,1,0,0,1,0,.4.34.34,0,0,1-.22.3,1.87,1.87,0,0,0-.5.29c0,.11,0,.23,0,.39a.67.67,0,0,1-.31.48h-3.55l-.52.06-1,.14-1,.14-.52.06h-8c-.08,0-.12-.05-.13-.14a2.11,2.11,0,0,1,0-.26.5.5,0,0,0-.18-.1.3.3,0,0,1-.2-.15l.08-.34a.2.2,0,0,1,.17-.15.54.54,0,0,0,.23-.1,1,1,0,0,1,.35-.43,2.38,2.38,0,0,0-.64-.15,1.63,1.63,0,0,1-.64-.22l.08-.34a.7.7,0,0,1,.52-.25.43.43,0,0,1,.2,0,.43.43,0,0,0,.2,0c.21,0,.32,0,.35-.09a1.18,1.18,0,0,0,.07-.2.57.57,0,0,1,.13-.22.8.8,0,0,1,.51-.1l1.55-6.68a.34.34,0,0,1,0-.09s-.05,0-.15,0a1.73,1.73,0,0,0-.43.08,1.46,1.46,0,0,1-.43.08.61.61,0,0,1-.4-.11.21.21,0,0,1-.08-.26.42.42,0,0,1,.25-.31,2.76,2.76,0,0,1,.47-.2l.46-.12.28,0-.36-.12a.43.43,0,0,1-.27-.16l.08-.27a.52.52,0,0,1,.42-.24,1.77,1.77,0,0,0,.56-.07l.1-.44a.52.52,0,0,0-.2-.24,1.83,1.83,0,0,1-.24-.19l.08-.28c0-.1.07-.16.16-.17a.42.42,0,0,0,.26-.14l.13-.29.13-.33a.28.28,0,0,1,0-.15,2.9,2.9,0,0,0,.08-.37c0-.18.09-.45.16-.8s.16-.84.28-1.46a1,1,0,0,0,0-.44,1.65,1.65,0,0,1,0-.55l-.19-.18a1.23,1.23,0,0,1-.23-.28.65.65,0,0,1-.11-.32.51.51,0,0,1,.21-.36,2.38,2.38,0,0,0-.5-.08.87.87,0,0,1-.47-.14l.11-.37A1.78,1.78,0,0,1,134,6l.58-.13s0-.07-.06-.09-.08-.08,0-.18a.5.5,0,0,1,.19-.22,1.59,1.59,0,0,1,.29-.15,2.15,2.15,0,0,0-.56-.07,5.25,5.25,0,0,1-.56,0,.24.24,0,0,1-.09-.08l-.1-.1a.74.74,0,0,0-.26,0,.82.82,0,0,1-.27,0,.07.07,0,0,1-.06,0H133a.05.05,0,0,0,0,0s0-.06,0-.06,0,0,0-.15.11-.22.29-.36a2,2,0,0,0,.42-.38.57.57,0,0,1,.31-.05,1.35,1.35,0,0,0,.34,0,.79.79,0,0,1,.33-.26,1,1,0,0,1,.29,0,1,1,0,0,1,.25,0,.24.24,0,0,0,.2,0l.56-.21a3.4,3.4,0,0,1,.54-.13,4.91,4.91,0,0,1,.59,0h1.54l11.6.24.13.2a.31.31,0,0,1,0,.27,1,1,0,0,1-.31.36,1.19,1.19,0,0,1-.53.28,1,1,0,0,0,.34.47.46.46,0,0,1,.19.52.76.76,0,0,1-.25.33,3.32,3.32,0,0,1-.41.32.29.29,0,0,0-.07.16.52.52,0,0,1-.07.21,1,1,0,0,1-.3.19,2.14,2.14,0,0,0-.36.19.36.36,0,0,0,.26.09h.34a.83.83,0,0,1,.32.06.24.24,0,0,1,.14.25.66.66,0,0,1-.34.34,1.59,1.59,0,0,1-.51.1h-.57a2.75,2.75,0,0,0-.51,0c-.28,0-.61.07-1,.09l-1.05,0h-1.9l-1.17,0-1.41,0-1.28-.06a.61.61,0,0,0-.27.34c-.08.18-.16.41-.25.68s-.19.52-.29.77-.17.47-.23.67-.11.31-.13.35,0,.21-.05.39a3,3,0,0,1-.07.51,1.45,1.45,0,0,0,.62.15H147a.28.28,0,0,0,0,.12.31.31,0,0,1,0,.22.32.32,0,0,1-.17.22,1.77,1.77,0,0,1-.31.15c.2.13.27.26.24.4a.59.59,0,0,1-.44.45,3,3,0,0,0-.65.3.73.73,0,0,0,.25.09l.31.08a.54.54,0,0,1,.24.12.33.33,0,0,1,.06.26.5.5,0,0,1-.24.3l-.47.27a4.51,4.51,0,0,1-.5.24,1.82,1.82,0,0,0-.33.15.35.35,0,0,0,.13.32.76.76,0,0,0,.33.11,3,3,0,0,0,.45,0,1.4,1.4,0,0,1,.43.06c.09.05.12.15.11.31a.43.43,0,0,1-.19.27,1.43,1.43,0,0,1-.31.12,1.25,1.25,0,0,1-.32.05h-.19a2.75,2.75,0,0,1-.43-.06,2.27,2.27,0,0,0-.53-.07h-2l-.88,0h-.47a.29.29,0,0,0-.23.13,1,1,0,0,1-.25.21h-3l-1,4.15,7.12.21h.34l.64,0,.78,0,.74-.06a.42.42,0,0,1,.06.32,1.9,1.9,0,0,0,0,.4.74.74,0,0,0,.07.37.54.54,0,0,0,.43.24Zm-13.78.8,0-.13h-.28l0,.13Zm.32-2.91.27-1.11h-.13l-.27,1.11Zm1.66-.18h-.12l-.23.59h.16Zm.68-13.41-.31-.13-.15.13Zm.45,3.86.14-.5H136l-.1.5Zm.12,9.83.05-.22h-.12l-.06.22Zm.48-13.66,0-.1-.35-.09,0,.13ZM139.83,24h-1.58l0-.13h1.58Zm5.72-2.54a.19.19,0,0,1-.13-.06.09.09,0,0,1,0-.06l-.66.11a3.74,3.74,0,0,1-.48,0H140.7a1.32,1.32,0,0,0-.36.08l-.44.14h3.52l.31,0,.57-.06.66-.09Zm-4.82-9,0-.13H140l0,.13Zm4,.31h-.47l.32.12Z"/><path class="cls-1" d="M167.45,7.19a.69.69,0,0,1-.26.44.64.64,0,0,1-.36.17.38.38,0,0,1-.24-.09.28.28,0,0,1-.11-.22.69.69,0,0,0-.23.19.34.34,0,0,1-.26.12c-.1,0-.16,0-.17,0a.18.18,0,0,0-.08-.06,3.64,3.64,0,0,0-.61-.73,8,8,0,0,0-.81-.63,9.54,9.54,0,0,0-.86-.5,3.78,3.78,0,0,0-.8-.3h-.09c.34.22.72.5,1.13.82a6.17,6.17,0,0,1,1.07,1,2.91,2.91,0,0,1,.3.42,3.45,3.45,0,0,1,.28.54c.08.18.15.35.2.49s.08.24.06.28-.07.16-.09.16,0,0-.05.12a.17.17,0,0,0-.13.05.37.37,0,0,1-.21,0,.22.22,0,0,1-.17-.09l-.18-.2a1.5,1.5,0,0,0-.23-.2.4.4,0,0,0-.31-.06l.16.21a.29.29,0,0,1,0,.28.4.4,0,0,1-.24.31.93.93,0,0,1-.25.06,1,1,0,0,1-.25-.2l-.53-.48c-.2-.18-.41-.37-.64-.56a3.89,3.89,0,0,0-.62-.43,2,2,0,0,0-.65-.17,6.47,6.47,0,0,1-.68-.11q-.43-.09-1.05-.18a7,7,0,0,0-.76-.09l-.34,0a1.07,1.07,0,0,0-.4,0,2.53,2.53,0,0,0-.53.24,5.12,5.12,0,0,0-.62.45,7.27,7.27,0,0,0-.55.56,1.29,1.29,0,0,0-.3.54.79.79,0,0,0,0,.29,1.23,1.23,0,0,0,.09.44,2.34,2.34,0,0,0,.25.46,1.16,1.16,0,0,0,.45.36,6.59,6.59,0,0,0,.94.32c.41.11.8.23,1.15.35.55.19,1.1.39,1.66.61a8.33,8.33,0,0,1,1.58.79,4.66,4.66,0,0,1,.81.69,8,8,0,0,1,.8,1,6.9,6.9,0,0,1,.6,1.18A3.41,3.41,0,0,1,164.6,17a3.08,3.08,0,0,1,0,.5,3.72,3.72,0,0,1-.09.46,1.88,1.88,0,0,0-.1.34c0,.19-.09.39-.15.62a6.5,6.5,0,0,1-.19.69c-.07.24-.14.43-.19.58a4.07,4.07,0,0,1-.22.51,5.06,5.06,0,0,1-.36.63,7.59,7.59,0,0,1-.59.85,14.77,14.77,0,0,1-1,1.16,13.19,13.19,0,0,1-1.27,1.19,7.29,7.29,0,0,1-1.38.91,8.3,8.3,0,0,1-2.19.62,16.75,16.75,0,0,1-2.39.18h-1.08l-.59-.05-.53-.09-.93-.19a3.71,3.71,0,0,1-1.05-.35,6.35,6.35,0,0,1-1-.64,10.09,10.09,0,0,1-.95-.78l-.83-.76a.63.63,0,0,0-.17-.59,3.92,3.92,0,0,0-.5-.39,4.73,4.73,0,0,1-.49-.35.41.41,0,0,1-.14-.46c0-.13.23-.26.63-.4a1.81,1.81,0,0,0-.3-.24l-.39-.27a2.51,2.51,0,0,1-.34-.3.34.34,0,0,1-.12-.31.89.89,0,0,1,.13-.24l.13-.16h.25c.08,0,.18.08.29.23a1.28,1.28,0,0,0,.44.39,3.14,3.14,0,0,0,1.11.29,8.67,8.67,0,0,1,1.17.17,0,0,0,0,0,0,0s.05,0,.09-.06a5.31,5.31,0,0,0-.62-.54c-.27-.2-.38-.39-.35-.57s0-.17.07-.19l.11,0a.35.35,0,0,0,.15-.1,1.21,1.21,0,0,0,.23-.35l.15-.12a.39.39,0,0,1,.25-.07.63.63,0,0,1,.25.13l.41.26.41.26a.82.82,0,0,0,.25.13.27.27,0,0,0,.22-.08.26.26,0,0,1,.21-.08.22.22,0,0,1,.22.12.41.41,0,0,0,.2.19l1.13.54a8.72,8.72,0,0,0,.86.39,4.6,4.6,0,0,0,.78.23,4.74,4.74,0,0,0,.89.08h.49a1,1,0,0,0,.56-.11,2.86,2.86,0,0,0,.54-.38c.2-.18.37-.35.53-.51a3.8,3.8,0,0,0,.79-.93,3.93,3.93,0,0,0,.27-.71,1.41,1.41,0,0,0-.11-.8,1.07,1.07,0,0,0-.78-.62,18.84,18.84,0,0,0-2.34-.53,7.47,7.47,0,0,1-2.19-.68,13.81,13.81,0,0,1-1.42-.86,5.53,5.53,0,0,1-1.31-1.24,1.34,1.34,0,0,1-.26-.62,6.52,6.52,0,0,1-.13-.77,1.28,1.28,0,0,1,.06-.43,2.69,2.69,0,0,1,.12-.43,2.9,2.9,0,0,1,.15-.51c.1-.3.23-.66.38-1.09s.3-.86.46-1.32.31-.89.46-1.25a2,2,0,0,1,.38-.58c.2-.21.38-.42.54-.6a6.51,6.51,0,0,1,1.44-1.39,9.59,9.59,0,0,1,1.64-.92,8.4,8.4,0,0,1,1.63-.5A8.11,8.11,0,0,1,158.49,3l.25,0a2.43,2.43,0,0,0,.4,0l.41.05.24,0a2.57,2.57,0,0,0,.46-.08,2.72,2.72,0,0,1,.5-.08c.08,0,.35,0,.82.1a6.27,6.27,0,0,1,1.39.34,8.82,8.82,0,0,1,1.11.47,12.79,12.79,0,0,1,1.27.75,9.18,9.18,0,0,1,1.13.88,2.88,2.88,0,0,1,.71.89,2.46,2.46,0,0,0,.18.37A.59.59,0,0,1,167.45,7.19ZM148.37,21.93q-.37-.2-.78-.36c-.27-.11-.53-.21-.78-.29.17.16.36.34.59.54a1,1,0,0,0,.49.29.54.54,0,0,0,.27-.09A.52.52,0,0,1,148.37,21.93Zm3.13-8.29c-.22-.39-.43-.77-.62-1.16a2.12,2.12,0,0,1-.15-1.34l-.19.71a1.12,1.12,0,0,0,0,.54,1.61,1.61,0,0,0,.2.57,1.75,1.75,0,0,0,.36.42A1.17,1.17,0,0,0,151.5,13.64Zm.18,11.59,0-.15h-.21l0,.15Zm.59-1.48h-.61a.63.63,0,0,0,.22.09l.25.06Zm-.15,1.55,0-.13h-.34l0,.13Zm.09-3.31,0-.12-.35-.1,0,.13Zm1.18,3.55,0-.12-1.24-.16,0,.1Zm-.9-3.49,0-.12h-.22l0,.12Zm.22.09,0-.15h-.21l0,.15ZM156,4.22a12.55,12.55,0,0,0-1.24.55,4.07,4.07,0,0,0-1.09.78c.4-.27.82-.53,1.24-.78A9.28,9.28,0,0,1,156,4.22Zm-1.66,11.06-.22-.14L153.9,15a.29.29,0,0,0,.19.2A.67.67,0,0,0,154.37,15.28Zm.67-1.23-.36-.34a.39.39,0,0,0-.34-.16h-.25a2.39,2.39,0,0,0,.47.26A5.26,5.26,0,0,1,155,14.05Zm4.84,9.76c-.34.17-.69.32-1,.45l-.95.35a4.44,4.44,0,0,0,1.07-.2A1.67,1.67,0,0,0,159.88,23.81Zm-.24-8.22a1.69,1.69,0,0,0-.82-.4,1.81,1.81,0,0,0,.42.2A1.36,1.36,0,0,1,159.64,15.59Zm1.5-10.29-.28-.17a.78.78,0,0,0-.35-.11,1.29,1.29,0,0,0-.38.08l-.41.14h.37Zm-.91,1.27s0-.07-.06-.07a.26.26,0,0,0-.1,0h.05l0,0Zm2.49,8.83-.23-.49-.12.06.23.49Zm1-7.85a2.82,2.82,0,0,1-.54-.44,2.87,2.87,0,0,0-.55-.45l-.08.28a3.66,3.66,0,0,0,.59.34Zm-.79,8.91.06-.22h-.16l-.05.22Z"/><path class="cls-1" d="M49.49,37a.37.37,0,0,1-.06.1.18.18,0,0,1-.11,0c-.08,0-.12,0-.13-.09a.59.59,0,0,1,0-.11l0,0a.1.1,0,0,1-.06,0,.12.12,0,0,1,0-.09l0-.12h0l0-.05s0,0,0,.05,0,0,0,.07a.41.41,0,0,0,0,.1A1.42,1.42,0,0,0,49,37a.88.88,0,0,1,0,.15.46.46,0,0,1,0,.1l0,.17,0,0h-.08c-.05,0-.09,0-.11-.12a1.83,1.83,0,0,1,0-.21s0,0-.07,0a.1.1,0,0,1-.08,0,.75.75,0,0,1-.07-.12,1,1,0,0,0-.08-.14.59.59,0,0,0-.18.24.72.72,0,0,1-.14.26H48a.57.57,0,0,1,0-.14,1,1,0,0,0,0-.16.51.51,0,0,0-.09-.13.35.35,0,0,0-.16-.09.09.09,0,0,0-.07.09.53.53,0,0,0,0,.13.22.22,0,0,1,0,.12s-.05.06-.11.06-.09,0-.12-.1l-.06-.21,0-.22a.84.84,0,0,0,0-.12c0-.18-.05-.35-.09-.52s0-.34-.07-.52l-.22,0-.24.05-.2,0h-1l-.25,0a3.48,3.48,0,0,1-.38.07s-.06,0-.07.06l0,.08a.85.85,0,0,0,0,.17.64.64,0,0,1-.06.18,1.26,1.26,0,0,1-.18.28l-.25.33a.15.15,0,0,1-.13.06s-.07,0-.07,0a.19.19,0,0,1,0-.08l0-.11a.5.5,0,0,0,0-.12.49.49,0,0,0-.1.16.17.17,0,0,1-.17.11h-.05a.35.35,0,0,1,0-.2l-.11-.11s-.1-.07-.15-.11l-.4.43-.39.44a.07.07,0,0,1-.06,0,.09.09,0,0,0-.07,0l-.06-.06a.11.11,0,0,1,0-.09l.07-.11.14-.2.16-.24a2,2,0,0,0,.14-.22h0v0a1.42,1.42,0,0,0-.18.22.84.84,0,0,1-.23.23l-.14,0-.13,0s-.07,0-.08-.09a.27.27,0,0,1,0-.09,1.66,1.66,0,0,1,.15-.38,2.73,2.73,0,0,1,.22-.41l.24-.41.23-.37q.24-.43.57-1c.22-.35.46-.74.71-1.17l.39-.67c.15-.26.31-.5.46-.74l.46-.68c.16-.23.31-.45.45-.68a4.07,4.07,0,0,1,.31-.44l.34-.43a.46.46,0,0,1,.1-.1.27.27,0,0,1,.13-.05h.76l.21,0a.32.32,0,0,1,.13.07.57.57,0,0,1,.1.11.51.51,0,0,1,.07.17c.06.28.12.58.19.89s.14.65.21,1,.15.67.22,1,.13.66.19,1a1.2,1.2,0,0,1,0,.27,1.36,1.36,0,0,0,0,.35c0,.11,0,.26.08.45s.07.38.12.6.08.45.13.67.08.44.12.64c0,0,0,.1,0,.16s0,.13,0,.19a.71.71,0,0,0,0,.17A.46.46,0,0,1,49.49,37Zm-7-.75h0l-.07.15h0Zm.84-1.46-.49.84a1.69,1.69,0,0,0,.23-.25,1.27,1.27,0,0,0,.12-.23c0-.07.05-.14.07-.2A.59.59,0,0,1,43.36,34.83Zm.45.41,0-.09-.14.2a1.43,1.43,0,0,0-.15.22.86.86,0,0,1,.16-.18C43.77,35.33,43.81,35.28,43.81,35.24Zm.38.95h0l-.11.2h0Zm.36-2.82h0l-.39.64,0,0Zm1.62,1-.26,0a1,1,0,0,0-.2,0,.8.8,0,0,0-.19,0l-.2,0,0,.06a.09.09,0,0,0,0,.06l.49-.07Zm.74-.28,0-.09a2.19,2.19,0,0,0,0-.41,5.62,5.62,0,0,0-.06-.56,2.65,2.65,0,0,0-.11-.52.46.46,0,0,0-.17-.28l-.11.09-.08.08c0,.12-.09.23-.13.33a2.37,2.37,0,0,1-.15.28c-.12.17-.23.35-.35.54s-.23.37-.35.54Zm-.71-2.5h0l-.14.25,0,0Zm.12-.74h0l-.09.25h.06Zm.49-1a1.35,1.35,0,0,0-.29.52,2.38,2.38,0,0,1-.19.49,3.21,3.21,0,0,1,.19-.31,1.75,1.75,0,0,0,.18-.29.43.43,0,0,0,0-.21A.52.52,0,0,1,46.81,29.85ZM47,34.62s0,0,0-.06a.05.05,0,0,0,0-.05l-.23,0a1,1,0,0,0-.23.07l.16.1a.31.31,0,0,0,.13.05.17.17,0,0,0,.12-.06A.7.7,0,0,0,47,34.62Zm-.11-2.95a.33.33,0,0,0,0-.18.88.88,0,0,1,0-.21.58.58,0,0,1-.06.15.27.27,0,0,0-.06.14l-.09.32a.42.42,0,0,0,.15-.09C46.8,31.75,46.84,31.71,46.85,31.67Zm.76,3a2.11,2.11,0,0,0,0-.35c0-.11,0-.22,0-.34s0-.23-.05-.37,0-.28,0-.46l0,.14a1.16,1.16,0,0,0,0,.27c0,.12,0,.26,0,.41l.06.42A1.38,1.38,0,0,1,47.61,34.64Zm0,.33,0-.31h0l0,.31Zm.48-.18,0-.26h0l0,.25Zm0-1.56,0-.14v0a.83.83,0,0,0,0-.27c0-.11,0-.2,0-.29l0,.35A1.71,1.71,0,0,1,48.1,33.23Z"/><path class="cls-1" d="M55.69,29.68a.53.53,0,0,1-.25.22,1,1,0,0,1-.31.1,1.76,1.76,0,0,1-.33,0,1.66,1.66,0,0,0-.33,0,.39.39,0,0,0,.18.05h.24l.22,0c.06,0,.08.05.07.09s0,.08-.1.13a.38.38,0,0,1-.13.09,2.22,2.22,0,0,1-.56.11l-.58.07a.28.28,0,0,0,.13,0h.12l.13,0,.22,0,.22,0a.49.49,0,0,1,.14,0,.27.27,0,0,1,.16.06s.07.08.06.12-.06.09-.14.11a1.08,1.08,0,0,1-.28,0h-.46l-.57.06A5.15,5.15,0,0,1,53,31c-.08.32-.15.56-.2.71a1.86,1.86,0,0,1-.1.25l-.47,2a1,1,0,0,1,0,.14c0,.07,0,.15,0,.24a2.23,2.23,0,0,0,0,.23c0,.07,0,.12,0,.14l0,.15a.81.81,0,0,1-.07.22l0,.15c0,.08-.05.18-.08.29s-.05.21-.07.31,0,.14,0,.16l-.05.08a1,1,0,0,0,0,.1l-.2.88c0,.08-.06.13-.13.14l-.13,0a.42.42,0,0,1,0,.09l-.08.17a.91.91,0,0,1-.09.17.19.19,0,0,1-.13.07.09.09,0,0,1-.07,0,.1.1,0,0,1,0-.09.45.45,0,0,1,.07-.14.48.48,0,0,0,.07-.15l.22-1,.05-.13c0-.07,0-.15.07-.23s0-.16.07-.23a.66.66,0,0,0,0-.13,1.41,1.41,0,0,0,0-.27,3.17,3.17,0,0,0,0-.41c0,.09-.07.2-.11.33l-.09.24-.31,1.36a.9.9,0,0,0,0,.22,2.13,2.13,0,0,1-.08.32h-.15a.19.19,0,0,1,0-.15c0-.06,0-.12,0-.18a1.21,1.21,0,0,0,0-.18.15.15,0,0,0,0-.13.17.17,0,0,1-.15-.13l0-.15a.72.72,0,0,1-.11.15l-.16.15h-.1a.16.16,0,0,1-.07.07l-.09,0,0,.1a.27.27,0,0,1-.06.1l0,0a.1.1,0,0,1-.07,0,.18.18,0,0,1-.09,0,.1.1,0,0,1,0-.09l.4-1.75s0,0,0-.1a1.37,1.37,0,0,1,0-.19q0-.1,0-.18a.29.29,0,0,1,0-.12l.33-1.46,0-.12c0-.06,0-.13.07-.2s0-.15.06-.21a.4.4,0,0,0,0-.13l0-.08,0-.14a.58.58,0,0,0,0-.14.74.74,0,0,0,0-.12,1.15,1.15,0,0,0,0-.2v-.18L51,31a.11.11,0,0,0-.09,0,.85.85,0,0,0-.16,0l-.19,0-.17,0-.23,0-.4-.06a2.57,2.57,0,0,1-.36-.11c-.1,0-.15-.09-.14-.16s0-.06.05-.07l0,0,.22-.05.23,0,.2,0h.9a.05.05,0,0,1,0,0s0,0,0-.06l-2,0a.16.16,0,0,1-.13-.06.11.11,0,0,0-.14,0v-.07a.12.12,0,0,1,0-.08.18.18,0,0,1,.09-.07l.1,0H49l.11,0s0,0,0,0,0,0,0,0a.21.21,0,0,0,0-.12l0-.12a.18.18,0,0,1,0-.09.32.32,0,0,1,.13-.08s0-.05-.05-.12a.23.23,0,0,1,.22-.12l.33,0,1.29,0h.45l.29,0h.31l.27,0h.43l.25,0,.51.05.51.05h.38l.22,0,.22,0h.12c.1,0,.15,0,.14.09a.63.63,0,0,0,0,.23.81.81,0,0,0,.28,0A.11.11,0,0,1,55.69,29.68Zm-5.42-.2,0,0H50v0Zm.44,1.14-.51,0H50l.22.05.18,0h.12A.24.24,0,0,0,50.71,30.62Zm-.11-1.17v0l-.29,0v.05Zm0,5.93s0-.08,0-.19,0-.23,0-.36,0-.25,0-.36,0-.18,0-.2L51,33.14l-.11.29a3.19,3.19,0,0,1-.11.33c0,.12-.06.21-.09.3a.9.9,0,0,0,0,.15.73.73,0,0,0,0,.21c0,.13,0,.28-.06.45s0,.36-.07.54,0,.36-.07.5l.06-.14.06-.16s0-.11,0-.15A.22.22,0,0,1,50.6,35.38Zm.6-3.68a2.91,2.91,0,0,0,.08-.38,1.23,1.23,0,0,0,0-.21c0-.06,0-.09,0-.11s0,0,0-.06a.71.71,0,0,0-.09.23c0,.13-.09.37-.17.72l.06-.1A.14.14,0,0,0,51.2,31.7Zm1.51-.7h-.05l-.22.81h.05Zm1.56-1.2-.47,0a2.22,2.22,0,0,0-.37,0H54l.13,0Zm-.16.56v-.05H54v.05Z"/><path class="cls-1" d="M60.33,35.8a.1.1,0,0,1,0,0,.1.1,0,0,0-.05,0l-.8,0a4.41,4.41,0,0,0-.73.08h1.46a.25.25,0,0,1,0,.13.29.29,0,0,1,0,.14.11.11,0,0,1-.08.1l-.17.1s0,.08,0,.14a.22.22,0,0,1-.1.16H58.59l-.18,0-.34,0-.34.05-.18,0H54.78s0,0,0,0a.27.27,0,0,1,0-.09.06.06,0,0,0-.06,0,.13.13,0,0,1-.07-.06l0-.11s0-.05.06-.05l.07,0a.43.43,0,0,1,.13-.16l-.22,0a.57.57,0,0,1-.22-.07l0-.12a.24.24,0,0,1,.18-.08h.14q.11,0,.12,0l0-.08s0,0,0-.07a.27.27,0,0,1,.17,0l.54-2.29v0h-.06l-.15,0-.14,0a.26.26,0,0,1-.14,0,.09.09,0,0,1,0-.09.16.16,0,0,1,.09-.11l.16-.07.16,0,.09,0-.12,0a.13.13,0,0,1-.09,0l0-.1a.19.19,0,0,1,.14-.08.45.45,0,0,0,.19,0l0-.15a.31.31,0,0,0-.07-.09l-.09-.06,0-.1a.06.06,0,0,1,.06-.05.2.2,0,0,0,.09,0,1,1,0,0,0,0-.1l0-.12v0A.49.49,0,0,0,56,32q0-.09.06-.27c0-.12,0-.29.09-.5a.27.27,0,0,0,0-.16,1,1,0,0,1,0-.18l-.06-.07L56,30.69a.3.3,0,0,1,0-.11.17.17,0,0,1,.07-.13l-.17,0a.27.27,0,0,1-.16,0l0-.13a.43.43,0,0,1,.17-.06l.2-.05s0,0,0,0,0,0,0-.06a.18.18,0,0,1,.07-.08.31.31,0,0,1,.1,0l-.2,0h-.19l0,0,0,0h-.24s0,0,0,0,0,0,0-.05,0-.08.1-.13a.6.6,0,0,0,.14-.13.21.21,0,0,1,.11,0h.12a.22.22,0,0,1,.11-.09h.25l.2-.07a.83.83,0,0,1,.18-.05h.74l4,.09,0,.06a.1.1,0,0,1,0,.09.4.4,0,0,1-.11.13.54.54,0,0,1-.18.1.31.31,0,0,0,.11.16.14.14,0,0,1,.07.17.26.26,0,0,1-.09.12l-.14.11a.08.08,0,0,0,0,.05.31.31,0,0,1,0,.08.6.6,0,0,1-.11.06l-.12.06a.1.1,0,0,0,.09,0h.12a.16.16,0,0,1,.1,0s0,0,0,.08a.19.19,0,0,1-.11.12l-.18,0h-.37a1.69,1.69,0,0,1-.33,0H58.91l-.49,0-.44,0a.27.27,0,0,0-.09.12,1.85,1.85,0,0,0-.09.23,2.15,2.15,0,0,1-.1.27c0,.09-.06.16-.08.23s0,.11,0,.12a1.23,1.23,0,0,0,0,.13,1.1,1.1,0,0,1,0,.18.54.54,0,0,0,.21,0h2.69s0,0,0,0a.11.11,0,0,1,0,.08.13.13,0,0,1-.06.07l-.11.06a.13.13,0,0,1,.08.14.21.21,0,0,1-.15.15l-.22.1a.11.11,0,0,0,.08,0l.11,0a.15.15,0,0,1,.08,0,.09.09,0,0,1,0,.09s0,.07-.08.1l-.16.1-.17.08-.12.05a.12.12,0,0,0,0,.11l.11,0h.15l.16,0a.11.11,0,0,1,0,.11.15.15,0,0,1-.06.09l-.11,0-.11,0h-.06l-.15,0-.19,0H58.41a.1.1,0,0,0-.07.05l-.09.07h-1l-.33,1.43,2.45.07h.34l.26,0,.26,0a.18.18,0,0,1,0,.11.68.68,0,0,0,0,.14.28.28,0,0,0,0,.13s.06.06.14.08Zm-4.74.28v0h-.1v0Zm.11-1,.09-.38h0l-.09.38Zm.57-.06h0l-.08.2h.06Zm.24-4.62-.11,0,0,0Zm.15,1.33.05-.17h-.05l0,.17Zm0,3.38,0-.07h0l0,.07Zm.17-4.7v0l-.12,0v0Zm1.09,6h-.54v0H58Zm2-.87a.05.05,0,0,1,0,0s0,0,0,0l-.23,0-.17,0H58.26l-.12,0-.15,0h1.32l.19,0,.23,0Zm-1.66-3.12v0H58v0Zm1.37.11h-.16l.11,0Z"/><path class="cls-1" d="M73,32.43l0,.11a2.09,2.09,0,0,1,0,.21l-.06.22c0,.08-.06.15-.08.22a.29.29,0,0,0,0,.08l0,.1-.24,1-.07.22c0,.14-.09.28-.14.44s-.09.3-.13.43a1.23,1.23,0,0,0-.07.24l-.21.88s0,.07-.07.13-.09.09-.13.09a.12.12,0,0,1-.09,0,.2.2,0,0,1,0-.08.2.2,0,0,0-.15.09.62.62,0,0,0,0,.16,1.29,1.29,0,0,1,0,.19.25.25,0,0,1-.1.15h-.13a.14.14,0,0,1,0-.11.83.83,0,0,1,0-.15l.06-.17a.4.4,0,0,0,0-.19l0,0h0s-.08,0-.12-.09a.72.72,0,0,0-.1.22,1.58,1.58,0,0,1-.11.23h-.13l0-.08a.52.52,0,0,0-.07.21c0,.07,0,.14,0,.2a1.66,1.66,0,0,1-.06.21.67.67,0,0,1-.11.18h-.13s0,0,0,0l0,0c0-.17.07-.32.11-.48s.07-.32.1-.49l-.09.08a.25.25,0,0,1-.11,0s-.07-.07-.06-.14a.08.08,0,0,0,0,0l0-.05a.88.88,0,0,0,0-.17.3.3,0,0,0,0-.15h0a.28.28,0,0,0-.13.15.22.22,0,0,0,0,.14.41.41,0,0,1,0,.12.25.25,0,0,1,0,.16l0,0h-.07a.11.11,0,0,1-.11-.06.51.51,0,0,1,0-.13.77.77,0,0,1,0-.15.42.42,0,0,0,0-.09l.1-.28c.06-.17.13-.36.21-.56l.2-.56a2.14,2.14,0,0,0,.09-.28q.07-.33.12-.57c0-.16,0-.33.08-.51s.07-.36.12-.56.11-.45.19-.74c-.18.27-.37.59-.59.95s-.44.75-.66,1.17-.37.65-.57,1-.4.64-.62,1l-.06,0a.18.18,0,0,0-.07,0,.2.2,0,0,1,0,.15,1.68,1.68,0,0,1-.64.19h-.33l-.25,0-.24,0a.19.19,0,0,1-.1,0,.24.24,0,0,1-.09-.08.09.09,0,0,1,0-.1.24.24,0,0,0,0-.12l0-.08a.12.12,0,0,1,0-.08,1.82,1.82,0,0,0,0-.33c0-.1,0-.21-.06-.31s0-.22-.07-.33a2,2,0,0,1,0-.36,1.87,1.87,0,0,1,0-.32c0-.14,0-.29,0-.46s0-.34,0-.52,0-.34,0-.48a1.52,1.52,0,0,0,0-.24c0-.1,0-.22,0-.35s-.05-.28-.07-.42,0-.27-.06-.39l-.54,2.24-.33.85-.2.88a.84.84,0,0,1,0,.1,1.1,1.1,0,0,1,0,.18,1,1,0,0,1,0,.18.77.77,0,0,1,0,.1.49.49,0,0,0,0,.13.89.89,0,0,1-.06.2,1.18,1.18,0,0,1-.11.19.19.19,0,0,1-.14.08s-.06,0-.06,0l0,0a.22.22,0,0,1-.14,0s-.06,0-.07,0a.29.29,0,0,0-.06-.1l-.07,0s0,0,0,0a.34.34,0,0,1,0,.09,1,1,0,0,1,0,.17s0,.06,0,.1l0,.13a.23.23,0,0,1-.06.12.17.17,0,0,1-.13.05.1.1,0,0,1-.08-.05.36.36,0,0,1,0-.11l0-.11a0,0,0,0,0,0,0s0,0,0,0,0,0,0,0a.09.09,0,0,1-.08,0,.09.09,0,0,1,0-.08l0-.16a1.6,1.6,0,0,0,0-.21.34.34,0,0,0,0-.11.71.71,0,0,1,0-.14s0,0,0,0l0,0,0,.09a.36.36,0,0,1,0,.11.18.18,0,0,1-.17.09.78.78,0,0,0-.26,0,.11.11,0,0,0,0,.05l-.06.07-.05,0a.12.12,0,0,1-.09,0l-.07,0-.06-.07,1.17-5.05a.67.67,0,0,1,.06-.16c0-.09.07-.18.11-.29l.11-.29a.67.67,0,0,0,.06-.16s0-.09,0-.22,0-.27.06-.43,0-.3.06-.43,0-.22,0-.24a.35.35,0,0,1,.08-.16.16.16,0,0,1,.14-.08l.07,0a.17.17,0,0,1,0,.05.2.2,0,0,0,.13-.1.17.17,0,0,1,.16-.08l.07,0,0,0c0,.08,0,.16,0,.24v.26a.28.28,0,0,0,.08-.12,1,1,0,0,1,0-.1.43.43,0,0,1,0-.07.13.13,0,0,1,.1,0,.1.1,0,0,1,.07,0l0,0a.64.64,0,0,1,.06.14.9.9,0,0,1,0,.18,2.23,2.23,0,0,1-.07.5,2.47,2.47,0,0,0-.09.52l.17-.22c.06-.08.11-.17.16-.25s0-.09.06-.2l.14-.35a1.83,1.83,0,0,1,.18-.34q.11-.15.21-.15h.06a.08.08,0,0,0,0,0,.38.38,0,0,0,.09-.09s0,0,.09,0,.06,0,.06,0a.13.13,0,0,0,0,.06.32.32,0,0,1,.12-.12.16.16,0,0,1,.1,0,.5.5,0,0,1,.15,0l.19,0a1,1,0,0,1,.22.43c0,.17.08.32.11.47h0a.74.74,0,0,0,0-.15l0-.18a.78.78,0,0,0,0-.16c0-.06,0-.09,0-.1s0-.06.05-.09l.09,0a.21.21,0,0,1,.14.18,1.22,1.22,0,0,1,0,.26q0,.42,0,.93c0,.34,0,.66-.07,1a2.16,2.16,0,0,0,0,.36,1.56,1.56,0,0,1,0,.37q0,.48,0,1t0,1L68,34c.11-.2.21-.42.33-.69l.09-.2.13-.26c0-.09.08-.19.13-.28l.12-.26c.07-.2.14-.41.21-.64a7.05,7.05,0,0,1,.25-.66,2,2,0,0,1,.19-.33c.08-.12.17-.25.25-.39a2.3,2.3,0,0,0,.23-.4.93.93,0,0,0,.12-.34s0-.07.07-.1l.1,0s.06,0,.06,0l0,0,.2-.19a.29.29,0,0,1,.2-.1.59.59,0,0,1,.21.05.7.7,0,0,0,.21.05.3.3,0,0,0,.12,0l.14,0a.14.14,0,0,1,.13.08.94.94,0,0,1,0,.1l.07,0h.08s.06,0,.07,0,0,0,.06,0,.11,0,.09.05a.42.42,0,0,0,0,.16,1.1,1.1,0,0,0,.18-.14l.17-.14h.14a.59.59,0,0,0,.11-.08.14.14,0,0,1,.11-.05.25.25,0,0,1,.14.07l.14.12a2.07,2.07,0,0,1,0,.22l0,.23,0,0,0,0a.18.18,0,0,0,.08-.15.32.32,0,0,1,0-.16.17.17,0,0,1,.1-.06h.1a.56.56,0,0,0,0-.08.15.15,0,0,1,.07-.07h.08l.06.08c0,.06,0,.14,0,.23s0,.19,0,.28a2.5,2.5,0,0,0,0,.25.31.31,0,0,1,0,.12l-.24,1.1a.37.37,0,0,0,0,.2.87.87,0,0,1,0,.28c0,.08,0,.18-.06.31A2,2,0,0,0,73,32.43Zm-8.88,2.86.19-.84h0l-.19.84Zm.65-3.53-.06-.05a3.54,3.54,0,0,0-.21.52,4.37,4.37,0,0,0-.12.49l.19-.49C64.64,32.07,64.7,31.91,64.77,31.76Zm0,1.85.09-.41h0l-.11.41Zm.62-.41h0l-.28,1.08h0Zm-.12-1.31.06-.26h-.05l-.06.26Zm.51-.25,0-.06h-.06v.06Zm.59-1a1,1,0,0,1,0-.23c0-.07,0-.14,0-.21a.19.19,0,0,1,0,.1.54.54,0,0,0,0,.11.5.5,0,0,0,0,.13A.15.15,0,0,0,66.41,30.63ZM66.74,34l0-.26h0l0,.26Zm0,.07,0-.06h0l0,.06Zm.22,2.3a.17.17,0,0,0,.07-.08,0,0,0,0,0,0-.05s0,0,0,0a0,0,0,0,1,0-.05Zm.21-6.58,0-.08,0,0,0,.06Zm.61,6.35h0l-.07.14h0Zm.63-.41h0l-.18.3,0,0Zm.16-2h0l-.09.26h0Zm0,0v-.06h0l0,.06Zm.36,1h0l-.14.21,0,0Zm.8-3.13,0-.11h0l0,.11Zm0-.12,0-.13h0l0,.13Zm.16-.37h0l-.11.23h0Zm.68,5.31.44-1.88H71l-.43,1.88Zm1.14-5.14.06-.22h0l-.06.22Zm.83.92h-.05l-.1.34h0Zm.1-.4a2,2,0,0,0,.15-.57A3.4,3.4,0,0,1,73,30.7a3.38,3.38,0,0,0-.12.57C72.8,31.46,72.76,31.65,72.72,31.84Z"/><path class="cls-1" d="M79.61,29.55a1,1,0,0,1-.1.25l-.17.34a4,4,0,0,1-.2.35l-.16.24a4.85,4.85,0,0,0-.48.6L78,32c-.13.18-.27.38-.4.6l-.34.59-.17.24c-.1.13-.2.28-.31.45s-.22.31-.31.46a1.3,1.3,0,0,0-.17.28v.08s0,.08,0,.13a.71.71,0,0,1,0,.14.36.36,0,0,1,0,.11c-.06.3-.11.59-.17.88s-.1.59-.14.88a.18.18,0,0,1-.15.09s-.06,0-.06,0,0,0,0,0l-.07.08a.36.36,0,0,0-.07.1.66.66,0,0,0,0,.17.62.62,0,0,1,0,.17.35.35,0,0,1-.08.1.21.21,0,0,1-.11,0s-.07,0-.08-.12a1,1,0,0,1,0-.26,2.83,2.83,0,0,1,0-.29,1.22,1.22,0,0,0,0-.21l-.18.29-.17.29a.22.22,0,0,0-.12.07l-.09.19a.39.39,0,0,1-.18.18s-.07,0-.08-.09a.22.22,0,0,1,0-.11l0-.12a.23.23,0,0,0,0-.11.47.47,0,0,0-.09.06.14.14,0,0,1-.1,0s-.06,0-.09-.08,0-.12-.08-.19a1.17,1.17,0,0,1,0-.2,1.15,1.15,0,0,1,0-.14L74.64,35a.74.74,0,0,0,0-.21,1.64,1.64,0,0,1,0-.23.49.49,0,0,1-.15-.12.64.64,0,0,1-.11-.2q0-.1-.06-.27c0-.12,0-.23,0-.36V33.2c0-.13,0-.25,0-.35a6,6,0,0,0-.11-.74c-.06-.25-.12-.49-.17-.72a.63.63,0,0,0-.12-.25.9.9,0,0,1-.13-.28c0-.08,0-.18-.08-.28s0-.22-.07-.32a1.7,1.7,0,0,1,0-.28c0-.08,0-.13,0-.14l0-.16,0-.05a.1.1,0,0,1,.07,0,.17.17,0,0,1,.12.06.31.31,0,0,0,.15.08l0-.1a.13.13,0,0,1,0-.1.14.14,0,0,1,0-.07s0,0,0-.05a.06.06,0,0,0,0,0h.08s.06,0,.1.09a.42.42,0,0,0,.11.15l.05,0-.12-.11a.13.13,0,0,1,0-.13.21.21,0,0,1,.06-.1.17.17,0,0,1,.11,0,.36.36,0,0,1,.14.09.26.26,0,0,0,.14.09s0,0,0,0,0,0,0,0a.09.09,0,0,1,.06,0,.6.6,0,0,0,.08.08l.07.08s0,0,.06,0a.59.59,0,0,0,.21,0c-.06-.06-.09-.12-.07-.18a.18.18,0,0,1,.12-.12.27.27,0,0,1,.11-.05c.08,0,.12,0,.13.09a5.74,5.74,0,0,0,.05.65c0,.26,0,.5.07.73a.3.3,0,0,0,0,.11.34.34,0,0,1,0,.12c0,.21.07.43.11.66a4.42,4.42,0,0,1,.06.76c0,.07,0,.14,0,.2l.06.13a.1.1,0,0,0,.09.06.08.08,0,0,0,.07,0l.06-.08a2.4,2.4,0,0,1,.12-.38,1.06,1.06,0,0,1,.18-.33q.1-.18.3-.45c.13-.17.24-.34.35-.51a1.14,1.14,0,0,0,.1-.19l.09-.21a1.27,1.27,0,0,1,.18-.27,2,2,0,0,0,.17-.29l0-.13a.93.93,0,0,0,.07-.2h.11c.06,0,.09,0,.1.06a.33.33,0,0,1,0,.14.94.94,0,0,1-.06.15.33.33,0,0,0,0,.1.19.19,0,0,1,.18,0l.07-.09a.12.12,0,0,1,.08,0s.05,0,0,0,0,0,0,0,.06,0,.1-.06l.13-.14a.67.67,0,0,1,.14-.15.17.17,0,0,1,.13-.07s.07,0,.07.09a.21.21,0,0,0,0,.15l.1-.08.19-.16.19-.15a.35.35,0,0,1,.14-.06c.07,0,.1,0,.1.08A.71.71,0,0,1,79.61,29.55Zm-5,7.65a.62.62,0,0,1,0-.13.78.78,0,0,0,0-.14.62.62,0,0,0,0-.13s0-.06,0-.06l0,.2a.28.28,0,0,0,0,.13A.5.5,0,0,0,74.63,37.2Zm.26-5.94a.58.58,0,0,1,0-.11.54.54,0,0,1,0-.1.4.4,0,0,1,0,.11.17.17,0,0,1,0,.1ZM75,32.92c0-.12,0-.25-.07-.39s-.06-.26-.08-.39l0,.09s0,.05,0,.11,0,.12,0,.19l.06.21C75,32.81,75,32.87,75,32.92Zm0,2.56.07-.27h0l-.06.27Zm.27-4.73v-.18h0l0,.17Zm.08,5,0-.22h0l0,.22Zm.13-3.67,0-.41h0l0,.41Zm.31,4.45,0-.18h0l0,.18Zm2.17-5.52h0l-.22.32,0,0Zm1.31-1.24a6.81,6.81,0,0,0-.63.82l-.59.89a5.06,5.06,0,0,1,.31-.43,3.46,3.46,0,0,1,.35-.4,2.8,2.8,0,0,0,.35-.46A2,2,0,0,0,79.25,29.82Z"/><path class="cls-1" d="M88,30.22l-1.35,5.37-.09.25c0,.08-.07.16-.11.23a.19.19,0,0,1-.08,0,.16.16,0,0,0-.08.06.56.56,0,0,0-.09.14l-.06.14a.35.35,0,0,0,0,.16.49.49,0,0,1,0,.17.35.35,0,0,1-.06.09l-.1,0-.06,0a.18.18,0,0,1,0-.07l-.17.09a.41.41,0,0,1-.15,0s-.09,0-.13-.12a.22.22,0,0,1,0-.21l-.08,0h-.09a.34.34,0,0,0-.1-.13l0,.1a.18.18,0,0,1-.07.08H85l-.07-.08a1.38,1.38,0,0,1,.08-.2.34.34,0,0,0,0-.19A.42.42,0,0,0,85,36l-.13-.22a7.09,7.09,0,0,0-.34-.67,2.36,2.36,0,0,1-.26-.69.94.94,0,0,0-.14-.32,1,1,0,0,1-.14-.35,1.37,1.37,0,0,1,0-.23c0-.09,0-.18,0-.27a1.45,1.45,0,0,0-.07-.26.82.82,0,0,0-.16-.22,2.43,2.43,0,0,1-.09.3l-.12.32a2.64,2.64,0,0,1-.1.27.43.43,0,0,0,0,.14L83,35a.7.7,0,0,1-.08.2,2.93,2.93,0,0,0-.12.28,1.6,1.6,0,0,0-.12.35,3.64,3.64,0,0,1-.11.39s0,.06,0,.12a1.29,1.29,0,0,1,0,.19.75.75,0,0,1-.08.18.14.14,0,0,1-.11.08s-.08,0-.09,0,0,0,0-.07a.19.19,0,0,1,0-.07.11.11,0,0,0,0-.05s0,0,0,0h-.08s0,0,0,.08l0,.11a.44.44,0,0,1-.08.11.21.21,0,0,1-.12,0s0,0-.08,0a.63.63,0,0,1,0-.09l0,0s0,0-.08,0,0,0-.06,0l0,0a.39.39,0,0,0-.12.17.32.32,0,0,1-.18.18l0,0a.12.12,0,0,1,0,0,.27.27,0,0,1,0-.12.69.69,0,0,0,0-.13.65.65,0,0,0,0-.13.13.13,0,0,0,0-.11l-.09,0a.22.22,0,0,0-.06.07v.09a.71.71,0,0,0,0,.14s0,.09,0,.13a.22.22,0,0,1,0,.09.15.15,0,0,1-.16.13s-.07,0-.09-.08a.57.57,0,0,1,0-.18c0-.06,0-.15,0-.26a10.81,10.81,0,0,1,.09-1.11,1.2,1.2,0,0,1,0-.24,2.86,2.86,0,0,0,.07-.28q0-.13.06-.24a.49.49,0,0,1,0-.12s0-.07,0-.15,0-.19.07-.3.06-.23.1-.35a2,2,0,0,1,.1-.32,1.52,1.52,0,0,1,.08-.22,2.44,2.44,0,0,0,.1-.24,2.07,2.07,0,0,1,.08-.2.31.31,0,0,0,0-.12L82,31.23a1.22,1.22,0,0,0,0-.21,2.55,2.55,0,0,1,.07-.32.67.67,0,0,1,.06-.12,1.21,1.21,0,0,0,0-.14.58.58,0,0,0,0-.23,2.35,2.35,0,0,0,0-.26v-.29a1.82,1.82,0,0,1,0-.32.32.32,0,0,1,.26-.1.7.7,0,0,0,.29,0l.05,0a.12.12,0,0,1,.09,0c.05,0,.08,0,.09.11a.53.53,0,0,0,0,.14.93.93,0,0,1,0,.33c0,.1,0,.2,0,.29s0,.19-.05.27a.74.74,0,0,0,0,.21h0a.82.82,0,0,0,0-.21c0-.12.07-.34.14-.65a.2.2,0,0,1,0-.09.94.94,0,0,0,.1-.1.11.11,0,0,1,0-.08.36.36,0,0,1,.07-.1.94.94,0,0,1,.1-.1l.08-.09,0,0h.07a.21.21,0,0,1,.11.05.44.44,0,0,1,.09.11.22.22,0,0,1,0,.1s0,.07,0,.11,0,0,0,0h0a.12.12,0,0,0,.1-.06l.13-.1a.14.14,0,0,1,.09.13,1.37,1.37,0,0,1,0,.19c0,.07,0,.14-.05.21a.3.3,0,0,0,0,.19,1.81,1.81,0,0,0,.13.34c0,.13.1.26.16.4s.11.27.16.41.09.26.12.38a4.39,4.39,0,0,0,.37.89,7.51,7.51,0,0,1,.43.85L86,31.63a.68.68,0,0,1,0-.17.93.93,0,0,0,.07-.19.51.51,0,0,0,0-.22c0-.11,0-.2,0-.28a6.34,6.34,0,0,1,.15-.81c.07-.28.12-.57.17-.87h0a.08.08,0,0,1,.06,0s.06,0,.07,0l0,.05a.51.51,0,0,0,.09-.14.12.12,0,0,1,.11-.05L87,29l.07.11a.37.37,0,0,1,.06.1l0,.06a.66.66,0,0,0,.07-.26l0-.31.06-.06a.11.11,0,0,1,.08,0,.09.09,0,0,1,.09.05.36.36,0,0,1,0,.11v.12a.16.16,0,0,0,0,.07.12.12,0,0,0,.07.05l.09,0a1,1,0,0,1,0,.25l0,.27a.42.42,0,0,0,.09-.14.88.88,0,0,0,0-.15l.13-.08a.33.33,0,0,0,.1-.11h.15l0,0s0,0,0,.05c0,.17-.07.35-.09.52S88,30,88,30.22Zm-6.8,6.07,0-.13,0-.13-.07.26Zm.4-1.1h0l-.1.3h0Zm1.09-.09a.3.3,0,0,1-.08.08l-.07.06a2.17,2.17,0,0,0-.07.24,2.18,2.18,0,0,1-.06.22.45.45,0,0,1-.06.12.69.69,0,0,0-.06.13.28.28,0,0,0,0,.13.56.56,0,0,1,0,.12c0-.18.11-.36.17-.56A4.29,4.29,0,0,1,82.69,35.1Zm0-4.82,0-.23h0l-.05.23Zm.2,4.13.11-.55s0,0,0,0h-.07A1.55,1.55,0,0,0,82.88,34.41Zm.2-1,0-.21h0l0,.21Zm1.34-1.84c0-.14-.1-.27-.16-.41s-.11-.28-.17-.41l0,.09a.41.41,0,0,0,0,.18,2.26,2.26,0,0,0,.11.22,1.07,1.07,0,0,0,.13.21Zm0,0,0,0,0,0,0,0Zm.32,3.4a1.23,1.23,0,0,0-.13-.29c0-.1-.1-.2-.14-.3l.13.31C84.7,34.79,84.74,34.89,84.79,35Zm.5-1.47,0-.08h0l0,.07Zm.5,3.11,0-.09h-.06l0,.09ZM86,33l.16-.65h0l-.15.65Zm.13,2.48h0l-.06.09h0Zm.39-2.21.41-1.78c0,.07,0,.17-.09.28l-.09.32c0,.1-.06.19-.09.27l0,.14c0,.12,0,.25-.07.4A1.22,1.22,0,0,0,86.47,33.29Zm.27,1h0l-.07.24h0Zm.15-1.19a1.83,1.83,0,0,0,.07-.32,1.59,1.59,0,0,1,.05-.28c-.05.2-.1.4-.16.6s-.11.39-.17.58c0-.1.07-.19.11-.29A1.42,1.42,0,0,0,86.89,33.11ZM87.3,30h0l-.07.21h0Z"/><path class="cls-1" d="M92.92,35.8l-.06,0,0,0-.8,0a4.18,4.18,0,0,0-.72.08h1.45a.4.4,0,0,1,0,.13.28.28,0,0,1,0,.14c0,.06,0,.09-.07.1a.66.66,0,0,0-.17.1.57.57,0,0,0,0,.14.29.29,0,0,1-.11.16H91.18l-.18,0-.35,0-.34.05-.18,0H87.36s0,0,0,0a.28.28,0,0,1,0-.09.09.09,0,0,0-.07,0,.13.13,0,0,1-.07-.06l0-.11a.06.06,0,0,1,.06-.05l.08,0a.32.32,0,0,1,.12-.16l-.22,0A.57.57,0,0,1,87,36.2l0-.12a.21.21,0,0,1,.17-.08h.14q.11,0,.12,0l0-.08s0,0,0-.07a.31.31,0,0,1,.18,0l.53-2.29v0h-.06l-.14,0-.15,0a.29.29,0,0,1-.14,0,.09.09,0,0,1,0-.09.16.16,0,0,1,.09-.11l.16-.07.16,0,.1,0-.13,0a.15.15,0,0,1-.09,0l0-.1a.21.21,0,0,1,.14-.08.44.44,0,0,0,.19,0l0-.15s0-.06-.07-.09l-.08-.06,0-.1a0,0,0,0,1,0-.05.2.2,0,0,0,.09,0l0-.1,0-.12a.11.11,0,0,1,0,0s0-.06,0-.13,0-.15.06-.27,0-.29.1-.5a.71.71,0,0,0,0-.16.36.36,0,0,1,0-.18l-.07-.07-.08-.09a.26.26,0,0,1,0-.11.14.14,0,0,1,.07-.13l-.18,0a.29.29,0,0,1-.16,0l0-.13a.43.43,0,0,1,.17-.06l.2-.05s0,0,0,0,0,0,0-.06a.27.27,0,0,1,.07-.08.31.31,0,0,1,.1,0l-.19,0h-.2l0,0,0,0h-.22s0,0,0,0,0,0,0,0,0,0,0-.05a.27.27,0,0,1,.1-.13,1,1,0,0,0,.15-.13.17.17,0,0,1,.1,0h.12a.27.27,0,0,1,.11-.09H89a.84.84,0,0,1,.19-.07.77.77,0,0,1,.19-.05h.73l4,.09s0,0,.05.06a.14.14,0,0,1,0,.09.3.3,0,0,1-.11.13.54.54,0,0,1-.18.1.42.42,0,0,0,.12.16A.14.14,0,0,1,94,30s0,.07-.08.12l-.14.11s0,0,0,.05a.31.31,0,0,1,0,.08.6.6,0,0,1-.11.06l-.12.06a.1.1,0,0,0,.09,0h.12a.16.16,0,0,1,.1,0s.05,0,.06.08a.23.23,0,0,1-.12.12l-.18,0h-.37a1.69,1.69,0,0,1-.33,0H91.49l-.49,0-.44,0a.27.27,0,0,0-.09.12,1.85,1.85,0,0,0-.09.23l-.09.27c0,.09-.06.16-.09.23a.49.49,0,0,1,0,.12,1.23,1.23,0,0,0,0,.13,1.1,1.1,0,0,1,0,.18.54.54,0,0,0,.21,0H93s0,0,0,0a.25.25,0,0,1,0,.08.13.13,0,0,1-.06.07l-.11.06c.07,0,.1.09.08.14a.18.18,0,0,1-.15.15l-.22.1a.12.12,0,0,0,.09,0l.1,0s.07,0,.08,0a.09.09,0,0,1,0,.09s0,.07-.08.1l-.16.1-.17.08-.12.05c0,.06,0,.09,0,.11l.11,0h.16l.15,0s0,0,0,.11a.15.15,0,0,1-.06.09l-.11,0-.11,0h-.06l-.15,0-.18,0H91a.1.1,0,0,0-.08.05.35.35,0,0,1-.09.07h-1l-.33,1.43,2.45.07h.34l.26,0,.26,0a.13.13,0,0,1,0,.11.68.68,0,0,0,0,.14.28.28,0,0,0,0,.13s.07.06.15.08Zm-4.75.28v0h-.1v0Zm.11-1,.1-.38h0l-.09.38Zm.58-.06h0l-.07.2h.05Zm.23-4.62-.11,0,0,0Zm.15,1.33.05-.17h-.05l0,.17Zm.05,3.38V35h0l0,.07Zm.16-4.7v0l-.12,0v0Zm1.1,6H90v0h.54Zm2-.87,0,0s0,0,0,0l-.23,0-.16,0H90.84l-.12,0-.15,0h1.32l.2,0,.22,0Zm-1.65-3.12v0h-.25v0Zm1.36.11h-.16l.11,0Z"/><path class="cls-1" d="M95.15,35.4a.08.08,0,0,0,0,.05.64.64,0,0,0,0,.14l-.09.34-.16.67a.37.37,0,0,1-.07.12.16.16,0,0,1-.11.05l-.06,0s0-.06,0-.12L94.7,36a1.26,1.26,0,0,0-.13.31c0,.13,0,.2-.06.24a1,1,0,0,0,0,.15.38.38,0,0,0,0,.18l0,0a.09.09,0,0,1,0,.09l0,.13,0,.05-.08,0s0,0-.06-.06a.07.07,0,0,0-.07-.05l-.13,0a.31.31,0,0,1-.13,0l-.07.06a.1.1,0,0,1-.08,0,.06.06,0,0,1-.06,0s0,0-.06,0h-.06s0,0,0,0a.19.19,0,0,1-.17-.07.15.15,0,0,1,0-.12s0,0-.05,0a.3.3,0,0,1-.08.08h-.17a.15.15,0,0,0,0-.09.3.3,0,0,1,0-.1L93,36.86a.26.26,0,0,1-.07-.1,1.43,1.43,0,0,1,0-.3c0-.14,0-.27,0-.39s0-.12,0-.2a1.85,1.85,0,0,0,0-.23l0,0,0,0a.45.45,0,0,1,0-.12.24.24,0,0,0,0-.12l.59-2.11.19-.79s0-.07,0-.17.06-.21.09-.34.07-.25.1-.37a2.35,2.35,0,0,1,.1-.27l0-.09a.45.45,0,0,0,.06-.12,1.8,1.8,0,0,0,0-.21v-.29a1.06,1.06,0,0,1,0-.29L94.4,30a.12.12,0,0,1,.08-.06l.11,0a2.48,2.48,0,0,0,0-.33.75.75,0,0,1,.1-.33s0,0,0-.06a.18.18,0,0,1,.09,0s.08,0,.08.05a.22.22,0,0,1,0,.11l0,.12a.08.08,0,0,0,0,.09.51.51,0,0,0,.18-.13c.07-.07.11-.1.15-.1s.06,0,.06,0,0,0,.07,0l.07,0,.12-.05.11,0a.18.18,0,0,1,.09,0,.15.15,0,0,1,.09,0l.1,0a.28.28,0,0,0,.15-.08c.06-.05.1-.08.13-.08a.14.14,0,0,1,.09.05l.07.09a.32.32,0,0,1,0,.14.89.89,0,0,1,0,.13l-.09.24a2.17,2.17,0,0,0-.07.24c0,.19-.1.37-.14.56a5.43,5.43,0,0,0-.09.56.34.34,0,0,0,0,.09.24.24,0,0,1,0,.12.64.64,0,0,1,0,.15c0,.07,0,.15,0,.24s-.05.16-.07.24l0,.17c0,.14-.09.27-.14.4a2.31,2.31,0,0,0-.1.37c0,.07,0,.2,0,.37s0,.32-.08.45,0,.06,0,.12,0,.12,0,.18a1.41,1.41,0,0,0,0,.18.54.54,0,0,0,0,.11l-.18.78a.39.39,0,0,0,0,.18A.87.87,0,0,1,95.15,35.4Zm-1.36,1.36a.62.62,0,0,0,0-.19c0-.07,0-.13,0-.19a2.25,2.25,0,0,0-.14.44A.17.17,0,0,0,93.79,36.76Zm.29-1.19.23-1h0l-.23,1Zm1.13-5.5a.38.38,0,0,0,0-.15,1.36,1.36,0,0,0,0-.17l-.25,1.12a1.44,1.44,0,0,1,.07-.23,2.5,2.5,0,0,0,.09-.25l.08-.21A.38.38,0,0,1,95.21,30.07Zm0,1.93,0,0a.08.08,0,0,0,0,0,3.7,3.7,0,0,0-.09.4l-.09.41.18-.52c.06-.18.1-.36.14-.53s.06-.35.09-.51,0-.3.05-.43c0,.06,0,.14,0,.24l-.06.32-.06.31C95.21,31.87,95.19,32,95.18,32Zm.42-1.85c-.07.17-.12.32-.16.45,0-.08.06-.16.08-.23A1.43,1.43,0,0,1,95.6,30.15Zm.23-.58c-.08,0-.13.06-.14.09l0,.11.11-.1A.31.31,0,0,0,95.83,29.57Z"/><path class="cls-1" d="M102.32,32.71a.24.24,0,0,1-.14.06.16.16,0,0,1-.1,0H102s0,0,.06,0h.08l0,.06,0,0a.49.49,0,0,0,0,.12.2.2,0,0,1,0,.11.23.23,0,0,1,0,.09l-.06.15a1.07,1.07,0,0,1-.07.15.84.84,0,0,0,0,.1l-.16.67-.06.13a.8.8,0,0,1-.08.16,1.82,1.82,0,0,0-.14.38,1.57,1.57,0,0,0-.06.28,1.41,1.41,0,0,1-.06.22.69.69,0,0,1-.12.22l-.23.18-.46.31-.49.3a.92.92,0,0,1-.32.12h0s0,0-.06,0a.58.58,0,0,0-.17.11,1,1,0,0,1-.35.16l-.34,0-.36,0H98a2.5,2.5,0,0,1-1-.21,3.08,3.08,0,0,1-.93-.72,1.37,1.37,0,0,1-.16-.32q0-.15-.06-.33c0-.12,0-.24,0-.35a1.25,1.25,0,0,1,0-.33,1.09,1.09,0,0,0,0-.36c0-.13,0-.26,0-.39a1.54,1.54,0,0,1,0-.46.42.42,0,0,1,0-.09l.06-.16L96,33l.07-.18c.07-.22.12-.4.18-.56s.11-.31.17-.46.13-.29.21-.44.18-.3.31-.47a1.4,1.4,0,0,1,.3-.3,4.81,4.81,0,0,0,.4-.36,2.49,2.49,0,0,1,.61-.52,3.77,3.77,0,0,1,.56-.24l.18-.07a.6.6,0,0,1,.2-.07h.13l.13,0a.75.75,0,0,0,.15,0h.16l.14,0H100a2.5,2.5,0,0,1,.49.07,4.89,4.89,0,0,1,.58.19,4.68,4.68,0,0,1,.55.27,1.66,1.66,0,0,1,.43.34.74.74,0,0,1,.21.37.43.43,0,0,1-.13.37c0,.06,0,.12,0,.2a.42.42,0,0,1,0,.16.2.2,0,0,1-.07.1.14.14,0,0,1-.1.06h0s0,0,0,0a.3.3,0,0,0-.06.11s0,.05-.11.05a.15.15,0,0,1-.11-.06c0-.05-.06-.07-.1-.07a.08.08,0,0,0-.07,0,.1.1,0,0,1-.08,0,.1.1,0,0,1-.09-.06s0-.09,0-.14a1,1,0,0,1,0-.16c0-.05,0-.1,0-.13a.2.2,0,0,0,0-.08l-.08-.11h0l0,.05,0,.08c0,.05,0,.11,0,.18a1.74,1.74,0,0,1,0,.22.38.38,0,0,1,0,.19,1.12,1.12,0,0,0-.23.18q-.14.12-.18.12s-.06,0-.1-.09a.79.79,0,0,0-.13-.13.18.18,0,0,1,0-.06.08.08,0,0,0,0-.07.78.78,0,0,0-.18-.33.6.6,0,0,0-.31-.22h-.25a3.64,3.64,0,0,0-.48,0,1.25,1.25,0,0,0-.44.14,1.78,1.78,0,0,0-.45.36,5.33,5.33,0,0,0-.54.66,1.29,1.29,0,0,0-.16.31,2.91,2.91,0,0,0-.12.35l-.07.3a.74.74,0,0,1,0,.16.93.93,0,0,1,0,.13,1.78,1.78,0,0,0,0,.26,3,3,0,0,0,0,.31,2.36,2.36,0,0,0,0,.25,2.15,2.15,0,0,0,.06.25,1,1,0,0,0,.11.28,3.15,3.15,0,0,0,.22.29l.23.28a.19.19,0,0,0,.13.09l.17.07h.2a1.62,1.62,0,0,0,.68-.17,2.63,2.63,0,0,0,.78-.7.14.14,0,0,0,0-.11.29.29,0,0,1,0-.1.5.5,0,0,1,0-.12.57.57,0,0,0,0-.13l-.08,0H98.88a.12.12,0,0,1,0-.11c0-.07,0-.1.06-.1s.07,0,.14,0a.18.18,0,0,0-.07-.09.12.12,0,0,1-.06-.09.2.2,0,0,1,.1-.13.34.34,0,0,1,.14,0h.18l.19,0a1.47,1.47,0,0,0-.31,0H99l-.13,0a.27.27,0,0,1-.12-.07l0-.13a.94.94,0,0,1,.26-.07l0-.07-.07,0h-.15s0,0,0-.06l0-.1a.59.59,0,0,1,.14-.06l.12,0a.22.22,0,0,0,0-.08.17.17,0,0,1,.08-.06l.21,0,.22,0h.76a.1.1,0,0,0,.08,0,.22.22,0,0,1,.09-.08h1l.19,0,.19,0,.1,0a.69.69,0,0,1,.24.05.54.54,0,0,1,.14.07Zm-6.2,1.68v-.26h0v.26Zm.94.92L97,35.19a.64.64,0,0,0-.1-.13l0,.1a.2.2,0,0,0,.08.08Zm.73.89-.31-.12v0l.3.12Zm0-.48-.12-.1-.11-.1a.17.17,0,0,0,.11.14Zm.48-5.55-.26.17a1.14,1.14,0,0,0-.22.22l.24-.19Zm.15.6a.55.55,0,0,0-.1.11.33.33,0,0,0-.08.11l.1-.11Zm.88,4.87a1.17,1.17,0,0,1-.37.13h-.45a.37.37,0,0,1-.16,0l.18.1a.58.58,0,0,0,.17,0,.91.91,0,0,0,.22-.06l.27-.08.07-.06Zm-.41-5.13v0l-.06,0v0Zm1-.79-.08,0h-.09a.74.74,0,0,0-.32.07l-.29.13a1.82,1.82,0,0,1,.4-.11Zm.58,1.05a.43.43,0,0,0,0-.14c0-.05,0-.07-.08-.06h-.2l.16.11A.38.38,0,0,0,100.53,30.77Zm.09-.49a.09.09,0,0,1,0-.08h-.15l.09.05Zm.06,2.92-.1,0a.2.2,0,0,1-.11,0l.14,0,0,0Zm0,.85h0l-.11.25h0Zm.15-4.12v0h-.08v0Zm.34,4.83a1.13,1.13,0,0,0-.1.13s0,.09,0,.12a1,1,0,0,0,.08-.14Zm0,.79,0,0-.08.09,0,0Zm.36-4.95-.1-.1-.11-.09a.33.33,0,0,1,0,.12.23.23,0,0,0,.07.11A.15.15,0,0,1,101.5,30.6Z"/><path class="cls-1" d="M109,29.79a.81.81,0,0,1,0,.14l-.1.27c0,.1-.08.21-.13.32s-.08.21-.12.29l-1.1,4.66c0,.08,0,.17,0,.28l0,.31a1.84,1.84,0,0,1,0,.26c0,.08,0,.12,0,.13a.54.54,0,0,0,0,.15.71.71,0,0,1-.08.18.1.1,0,0,1,0,0,.1.1,0,0,0,0,0,.53.53,0,0,0,0,.11c0,.06,0,.12-.08.19a.83.83,0,0,1-.13.18.25.25,0,0,1-.18.08.14.14,0,0,1-.12-.09.19.19,0,0,1,0-.12.14.14,0,0,1,.13-.1l.11,0,0-.07,0-.08-.06,0h-.08l-.11,0a.27.27,0,0,0-.12,0,.07.07,0,0,0,0,.07l0,.09a.16.16,0,0,1,0,.07s0,0-.09,0-.12,0-.1-.12a1.64,1.64,0,0,0,0-.22.23.23,0,0,0,0,.1.42.42,0,0,1,0,.12.26.26,0,0,1-.07.11.17.17,0,0,1-.13,0s0,0,0-.05,0-.06,0-.06,0,0,0,0,0,0,0,0-.09,0-.09-.08a3.05,3.05,0,0,0,.18-.79c0-.3.08-.58.11-.84a1.31,1.31,0,0,1,.11-.34l.28-1.14L106,34l-.25,0-.21,0h-.2l-.13,0h-.13l-.1,0h-.86a.09.09,0,0,0,0,.06.5.5,0,0,0,0,.12,2.35,2.35,0,0,0-.06.29c0,.12-.06.29-.1.5s0,.14,0,.23l0,.25a1.83,1.83,0,0,0,0,.21.42.42,0,0,1,0,.11.63.63,0,0,1,0,.12l-.07.23-.09.28c0,.09-.06.18-.09.25l-.06.08a.2.2,0,0,1-.09.06.15.15,0,0,1-.11-.11l0,0v.06a.38.38,0,0,0,0,.18.61.61,0,0,1,0,.18.16.16,0,0,1-.06.08.1.1,0,0,1-.09,0s-.07,0-.09-.08a1.16,1.16,0,0,1,0-.18,1.15,1.15,0,0,1,0-.19v-.12h-.08s0,.05,0,.09a.5.5,0,0,1,0,.12l0,0,0,0s0,.06,0,.12a1.33,1.33,0,0,1,0,.19.77.77,0,0,1-.1.18.15.15,0,0,1-.13.08.12.12,0,0,1-.1-.06.11.11,0,0,1,0-.11,2.82,2.82,0,0,1,.07-.32c0-.14.08-.28.11-.42s.07-.28.09-.39,0-.16,0-.16h-.06s0,0-.06,0-.08.24-.11.37-.06.25-.09.36a.36.36,0,0,1-.07.09s-.08.07-.12.06L102,37a.18.18,0,0,1-.08.07.13.13,0,0,1-.1-.07.35.35,0,0,1,0-.14.92.92,0,0,0,0-.16.59.59,0,0,0,0-.14l1.37-6a3.86,3.86,0,0,0,.14-.39,2,2,0,0,0,.06-.28,1.07,1.07,0,0,1,.06-.17.1.1,0,0,1,.09-.06c.06,0,.1,0,.11.05a.29.29,0,0,1,0,.09s0,.06,0,.09,0,0,0,0h.07l.06,0a3.66,3.66,0,0,1,.14-.36l.2-.4,0-.05.07,0a.09.09,0,0,1,.09.06.41.41,0,0,1,0,.12s0,.08,0,.12a.09.09,0,0,0,0,.08.15.15,0,0,0,.08,0,.09.09,0,0,1,.08.05.25.25,0,0,1-.06.16.13.13,0,0,1,.1.1.45.45,0,0,1,0,.16,1.18,1.18,0,0,1,0,.2.68.68,0,0,0,0,.19,1.19,1.19,0,0,0,.12-.32,1,1,0,0,1,.17-.33.32.32,0,0,1,.12-.1.3.3,0,0,1,.14,0,.09.09,0,0,1,.07,0,.08.08,0,0,1,0,.07.85.85,0,0,1-.07.21l-.1.24a3.44,3.44,0,0,0-.1.37q-.06.26-.09.45a.14.14,0,0,0,0,.09.14.14,0,0,1,0,.09l-.3,1.25.21.05a.62.62,0,0,0,.17,0h.85l.15,0,.18,0h.25a1.62,1.62,0,0,1,.33,0h0a.14.14,0,0,0,0-.07l.24-1a.62.62,0,0,0,0-.16.6.6,0,0,1,0-.19c0-.05,0-.11,0-.18s0-.15,0-.22,0-.13,0-.19a.53.53,0,0,1,0-.11l.25-1.06.07-.05h.17c0,.05,0,.11,0,.17s0,.12,0,.17v0s0,0,0,0a.1.1,0,0,0,.1,0,.47.47,0,0,0,.07-.12l.06-.12a.19.19,0,0,1,0-.1c.09,0,.14,0,.15,0a.2.2,0,0,0,.07-.1s0-.05.11-.05a.1.1,0,0,1,.1.06,1.22,1.22,0,0,1-.06.26.34.34,0,0,0,0,.28h0a.92.92,0,0,1,0-.16,1.24,1.24,0,0,1,0-.16l0,0s0,0,.07,0a.05.05,0,0,1,.06,0,.3.3,0,0,1,0,.1.45.45,0,0,1,0,.11.64.64,0,0,0,0,.09.8.8,0,0,0,.1-.22.39.39,0,0,0,0-.13.34.34,0,0,1,0-.08.22.22,0,0,1,.1,0h.05s0,0,0,0a.11.11,0,0,1,0,.13c.07,0,.12,0,.14.05a.16.16,0,0,1,0,.11.3.3,0,0,1,0,.13Zm-6.73,6.35.22-1a.38.38,0,0,0,0-.15c0-.06,0-.11,0-.14l-.39,1.72a.9.9,0,0,1,.09-.26C102.21,36.25,102.24,36.18,102.25,36.14Zm1-4.26v-.19a.58.58,0,0,1,0-.19l-.48,2.14Zm.24,4.34.22-.92a.23.23,0,0,0,0-.14.36.36,0,0,1,0-.15l-.41,1.66a2.72,2.72,0,0,1,.12-.25Zm.34-5.9,0-.18h0l0,.18Zm.33,2.42.36-1.53h0l-.36,1.53Zm.4.11,0-.15h-.15l0,.15Zm-.09-2.29,0-.13h0l0,.13Zm1.76,2.33h-1.14l.56,0A2.27,2.27,0,0,0,106.19,32.89Zm-.32.85h-.14l-.3,0-.06.06a2.82,2.82,0,0,0,.4,0Zm.61-.5-.51,0a.91.91,0,0,1-.37.06l.28,0a1,1,0,0,0,.21,0l.18,0Zm-.28,3.43,0-.07h0l0,.07Zm0-.07.11-.53h0l-.12.53Zm.57-1,.37-1.6h0l-.37,1.6Zm.83-4.71.16-.74h0l-.16.74Zm.21-1a.52.52,0,0,0,0-.14.27.27,0,0,1,0-.11l-.07.08a.1.1,0,0,0,0,.09A.08.08,0,0,1,107.86,29.86Zm.08,2,.09-.43h0l-.1.43Zm.07-.52L108.3,30h0L108,31.3Z"/><path class="cls-1" d="M114.76,35.45a1,1,0,0,1-.28.48,3.14,3.14,0,0,1-.5.46,4.05,4.05,0,0,1-.59.36,2,2,0,0,1-.52.21l-.21,0-.26.05-.23,0-.12,0h-1.48l-.27,0h-1.73a.69.69,0,0,1-.06-.13s0-.07-.13-.11,0,0-.09,0h-.1l-.14-.07a.48.48,0,0,0-.14-.09l0-.16.26-.1.27-.09a.31.31,0,0,0-.1,0,.27.27,0,0,1-.13,0l0-.16a.3.3,0,0,1,.11-.06.33.33,0,0,0,.1-.06.16.16,0,0,1,0-.18.34.34,0,0,1,.2-.08l-.21,0a.56.56,0,0,0-.16,0H108a.09.09,0,0,0,0,0,.11.11,0,0,1,0-.08s0-.08.13-.11a1.49,1.49,0,0,1,.25-.07l.27-.05a.59.59,0,0,0,.17,0,.43.43,0,0,1,0-.2L109,34s0,0,0-.06v-.09a.83.83,0,0,0,0-.16.82.82,0,0,1,.07-.3,1.38,1.38,0,0,0,.08-.29s0,0-.08,0a.16.16,0,0,1-.08-.06l0-.13.15-.08.15-.08-.09-.07a.11.11,0,0,1,0-.09.18.18,0,0,1,0-.07l.1,0,.11,0,0,0,.39-1.67a.21.21,0,0,0-.15-.07h-.33s-.05-.05,0-.1a.15.15,0,0,1,.1-.12.37.37,0,0,0,.14-.06s-.06-.05-.15,0,0,0,0,0a.08.08,0,0,1,0-.07.1.1,0,0,1,.06-.09l.13-.06.13,0,.09,0h0a.06.06,0,0,0,0,0l-.16,0-.15,0,0-.14a.62.62,0,0,1,.19-.07H110l0,0s0,0,0,0a.24.24,0,0,0-.12,0h-.17l-.09,0a.47.47,0,0,1-.09-.06.1.1,0,0,1,0-.07l.12-.11a.65.65,0,0,1,.16-.09.44.44,0,0,1,.17,0,.89.89,0,0,0,.23,0,.59.59,0,0,0,.14-.06.24.24,0,0,1,.12-.05s0,0,.08.05l0,.07h.12l.14,0a.07.07,0,0,0,0,0l0,0a.13.13,0,0,1,.08,0s0,0,.07.05a.07.07,0,0,0,.07,0,.16.16,0,0,0,.1-.05.14.14,0,0,1,.1-.06.11.11,0,0,1,.08,0,.08.08,0,0,0,.07,0l.13,0,.13,0h2l.1,0,.2,0,.23.06.22.06.16.08.16.07a.63.63,0,0,1,.44.25,1.32,1.32,0,0,1,.22.48,2.57,2.57,0,0,1,.06.55,4.61,4.61,0,0,1,0,.47,2.75,2.75,0,0,1-.18.5,2.33,2.33,0,0,1-.42.59.74.74,0,0,1-.16.12.76.76,0,0,0-.16.14l-.24.24a2.83,2.83,0,0,1-.24.25l.12.11a1,1,0,0,1,.15.11,1.17,1.17,0,0,1,.24.33,1.58,1.58,0,0,1,.12.39c0,.12,0,.25,0,.42a3.62,3.62,0,0,1,0,.47c0,.15,0,.29,0,.4A.91.91,0,0,1,114.76,35.45Zm-5.73,1c-.06,0-.09-.06-.08-.11s0-.06,0-.06v0a.26.26,0,0,0-.09.1.14.14,0,0,0,0,.09.06.06,0,0,0,.07,0Zm.41-2.64a4.23,4.23,0,0,0-.24.76c-.06.29-.1.53-.13.72Zm.28,2.35a.78.78,0,0,0-.22,0l-.24,0,.35,0Zm-.21-2.55.08-.37h0l-.1.37Zm.46,2.84,0,0h-.33v0Zm.3-4.83-.09.34c0,.11-.06.22-.08.33,0-.09.05-.2.08-.31Zm.28.5h0l-.07.15h0ZM113,34.47a.17.17,0,0,0,0-.08l-.08-.13-.1-.12-.08-.06-.44-.12-.24,0a.54.54,0,0,0-.18,0h-1c0,.1,0,.21,0,.34s-.05.24-.07.34a2.87,2.87,0,0,0,0,.31,1.73,1.73,0,0,1-.08.27l0,0h.18l.23,0,.49-.06.6-.1.53-.07s.09-.09.13-.15l.11-.16.08-.14A.31.31,0,0,0,113,34.47ZM111,31.06h0l-.09.24h.06Zm.51,2.35a1.23,1.23,0,0,0-.27,0l-.25,0a1.18,1.18,0,0,0,.26,0Zm.22-1h-.42l0,0a1.23,1.23,0,0,0,.29,0Zm1.91-1.1-.14-.13a1.92,1.92,0,0,0-.21-.16,1.43,1.43,0,0,0-.24-.16.53.53,0,0,0-.23-.06l-.15,0-.31,0-.36.05-.33.05-.28,1.19h1.45a1,1,0,0,0,.26,0,.74.74,0,0,0,.22-.14,1.12,1.12,0,0,0,.16-.22,1.46,1.46,0,0,0,.1-.23A1.15,1.15,0,0,0,113.6,31.28Zm-1.08,4.35v-.1a9.24,9.24,0,0,1-1,.18h.21l.17,0,.09,0,.14,0,.17,0Zm.09-1.86v0l-.28-.07v.05Zm1.75-1.42-.91.34a1.5,1.5,0,0,0,.45-.12A2.77,2.77,0,0,0,114.36,32.35Zm-.71-1.5-.07-.1h-.11l.09.06A.18.18,0,0,0,113.65,30.85Zm-.06,3.41v-.09l0,0,0,.06Zm.49-3.59,0-.14a.67.67,0,0,0-.17-.08l-.18-.06.16.14ZM114,32.85H114l-.06,0H114Zm.21,2,0,0-.09.1,0,0Zm0-.53,0-.22h-.05l0,.21Zm.75-4a4.75,4.75,0,0,0-.39-.38,1.58,1.58,0,0,0-.41-.28Zm-.67,3.18v-.08l0,0v.06Zm.19.4-.15-.37,0,0,.15.36Zm.06.41,0-.39h0l.06.38Zm.29-3.24,0-.24h0l0,.24Zm.2.4h0l-.08.19H115Z"/><path class="cls-1" d="M121.59,32.76a2.19,2.19,0,0,1-.08.27c-.05.13-.1.25-.14.37s-.1.27-.17.47l-.22.9a.54.54,0,0,1,0,.11.5.5,0,0,0-.05.13,1.5,1.5,0,0,1-.25.51,4.29,4.29,0,0,1-.46.52,5.11,5.11,0,0,1-.55.48,6.08,6.08,0,0,1-.52.38H119l-.1,0a3,3,0,0,1-.85.24,7.34,7.34,0,0,1-.81,0h-.39a1.24,1.24,0,0,1-.37-.06,1.34,1.34,0,0,1-.39-.18,2.9,2.9,0,0,1-.46-.39l-.25-.24a.48.48,0,0,1-.15-.29,4.74,4.74,0,0,1-.1-1.35,8.09,8.09,0,0,1,.2-1.37,1.9,1.9,0,0,1,.07-.28c0-.11.06-.21.1-.32s.06-.22.08-.31a1.49,1.49,0,0,0,0-.21,1.22,1.22,0,0,1,.07-.28,2.67,2.67,0,0,1,.15-.34,1.57,1.57,0,0,1,.18-.27,1.73,1.73,0,0,0,.19-.28,6,6,0,0,1,.43-.64c.09-.11.2-.22.32-.34a2.14,2.14,0,0,1,.41-.29.55.55,0,0,0,.22-.25.51.51,0,0,1,.24-.26,1.38,1.38,0,0,1,.2-.08l.25-.09.26-.07.22,0,.3,0,.51.12.69.15h.13a.3.3,0,0,1,.14,0l.13.06a1,1,0,0,1,.53.32,1.44,1.44,0,0,1,.31.54,2.61,2.61,0,0,1,.13.63,3.91,3.91,0,0,1,0,.6.15.15,0,0,0,0,.12.14.14,0,0,1,0,.14c0,.08,0,.17,0,.28l0,.32c0,.1,0,.19,0,.27A.41.41,0,0,1,121.59,32.76Zm-6,2.58a1.09,1.09,0,0,0,0-.18,1.68,1.68,0,0,1,0-.18.54.54,0,0,0,0,.18A1.16,1.16,0,0,0,115.55,35.34Zm.23-.75a1.72,1.72,0,0,1,0-.26,1.65,1.65,0,0,0,0-.21,1.21,1.21,0,0,0,0-.19,2,2,0,0,0,0-.22c0,.15,0,.3,0,.45S115.79,34.46,115.78,34.59Zm.39-2.56c0,.14-.09.31-.16.5s-.13.41-.2.66l.06,0a3.36,3.36,0,0,0,.18-.56C116.09,32.38,116.13,32.19,116.17,32Zm.5,1.18.13-.54h0l-.13.54Zm0,.53a.4.4,0,0,0,0-.16v-.16a.39.39,0,0,0,0,.16A.76.76,0,0,0,116.65,33.74Zm1.06-3.54a2.09,2.09,0,0,0-.3.21,2,2,0,0,0-.29.29,1.66,1.66,0,0,0-.25.34,1.06,1.06,0,0,0-.15.35l.2-.28.2-.3a3.15,3.15,0,0,1,.24-.3A2.15,2.15,0,0,1,117.71,30.2Zm-.64,5.27a.6.6,0,0,1-.12-.22c0-.08,0-.14-.06-.2v.13a.7.7,0,0,0,0,.14.43.43,0,0,0,0,.12A.09.09,0,0,0,117.07,35.47Zm.53.55-.24,0-.22,0a.36.36,0,0,0,.07.1.13.13,0,0,0,.1,0l.14,0Zm2.23-4c0-.09,0-.22.06-.36a.64.64,0,0,0,0-.32.35.35,0,0,0-.14-.1l-.28-.11-.3-.08-.22,0a1.05,1.05,0,0,0-.83.35,3.26,3.26,0,0,0-.52.89l-.37,1.46c0,.1,0,.23-.06.41a2.54,2.54,0,0,0,0,.55,1.54,1.54,0,0,0,.08.5c0,.15.13.24.25.26a.56.56,0,0,0,.19,0H118l.22,0a.64.64,0,0,0,.23-.1.76.76,0,0,0,.25-.23l.1-.14.08-.13a6.88,6.88,0,0,0,.27-.64c.09-.24.18-.49.26-.74s.15-.51.22-.75S119.78,32.18,119.83,32Zm-2.18,4.74h-.11a.4.4,0,0,0-.15,0l0-.17a.3.3,0,0,1,.11,0Zm0-5.77a.92.92,0,0,1-.14.14l-.14.11a.19.19,0,0,1,0,.12,1.4,1.4,0,0,0,.13-.18Zm.51,4.71-.21,0h-.19a.39.39,0,0,1,.14,0l.12,0a.23.23,0,0,0,.11,0S118.22,35.67,118.21,35.66Zm.21.35-.21.12-.19.1.22-.1A.57.57,0,0,0,118.42,36Zm.26-5.34v-.05l-.21.09v0Zm0-1.29a.14.14,0,0,1,0-.06.06.06,0,0,0,0-.06l-.12,0-.12,0a.23.23,0,0,1,.11,0Zm.43,5.58h0l-.22.33,0,0Zm.23-4.58v-.06h-.16v.06Zm.45-.64a.17.17,0,0,0-.11,0l-.18.05a.52.52,0,0,1-.22.05h.61Zm0,.64v-.05l-.12,0,0,.05Zm.42,1.43a.34.34,0,0,0,0-.1l-.31,1.36q.08-.3.18-.66C120.1,32.17,120.15,32,120.2,31.81Zm.35-1.93-.19-.16,0,0,.19.15Zm.11,2.24v-.06a1.16,1.16,0,0,0,0-.18l-.06-.17,0,.15a.13.13,0,0,0,0,.12.35.35,0,0,1,0,.12v.25a1.64,1.64,0,0,1,0,.23l.07-.34Zm.64-1.66a1.89,1.89,0,0,0-.06-.21c0-.09-.07-.15-.13-.17a.75.75,0,0,0,.08.2Zm0,.11v-.09h0l0,.08Z"/><path class="cls-1" d="M126.88,37c0,.07,0,.1-.07.11h-.08c-.07,0-.09,0-.08,0s0-.06-.05-.12l0,0a.18.18,0,0,1,0,0s0,.09.06.16.06.13,0,.16a.18.18,0,0,1-.07.09.12.12,0,0,1-.09,0,.14.14,0,0,1-.12-.08.51.51,0,0,1-.09-.18.82.82,0,0,1-.06-.19.53.53,0,0,0,0-.11.07.07,0,0,0-.06,0,.16.16,0,0,1-.08-.06.27.27,0,0,0-.08.07.18.18,0,0,1-.1,0s-.09,0-.11-.11h0v.05s0,.08.06.13.07.11.06.14a.13.13,0,0,1-.07.08s-.07.06-.07.09a.29.29,0,0,0,0,.18.34.34,0,0,1,0,.17.2.2,0,0,1,0,.09.14.14,0,0,1-.1.05.08.08,0,0,1-.08-.07.75.75,0,0,1,0-.16,1,1,0,0,1,0-.17.56.56,0,0,0,0-.1h0a.75.75,0,0,1,0,.16l-.09.15,0,0h-.06s-.06,0-.07,0l0-.05a1.41,1.41,0,0,1,0-.22.47.47,0,0,0,0-.21l-.14-.33-.16-.36a3,3,0,0,1-.15-.38,1.35,1.35,0,0,1-.09-.36,2,2,0,0,0-.09-.27c-.05-.12-.09-.23-.13-.34s-.09-.37-.13-.56-.09-.38-.14-.57a1.76,1.76,0,0,1-.27,0l-.21,0h-.06a.44.44,0,0,0-.12.15l-.06.2a1.85,1.85,0,0,0,0,.23,1.79,1.79,0,0,1,0,.23c0,.08,0,.16,0,.25s0,.18,0,.26,0,.18,0,.3a1.19,1.19,0,0,1-.07.25c0,.11,0,.24-.09.38a3.06,3.06,0,0,1-.19.52,1.73,1.73,0,0,0-.08.31.39.39,0,0,1-.14.29h-.08a.09.09,0,0,1,0-.06v-.14l0-.16a1,1,0,0,0,0-.15l.19-.84-.33,1.31s0,0,0,.06a.15.15,0,0,0-.06.09,1.13,1.13,0,0,0-.09.25.28.28,0,0,1-.18.22c-.06,0-.08,0-.08-.06a.27.27,0,0,0,0-.13,1.47,1.47,0,0,0-.13-.24.28.28,0,0,1-.06-.18s0-.06,0,0v0l0,0,0,0a.24.24,0,0,0,0-.12.54.54,0,0,0,0-.19,1,1,0,0,0,0-.25.18.18,0,0,0,0,.1l0,.11a.31.31,0,0,1,0,.1.13.13,0,0,1-.09,0,.08.08,0,0,1-.08,0,.25.25,0,0,1,0-.1s0-.08,0-.11v-.09a.11.11,0,0,1-.13,0,2,2,0,0,1-.06.35c0,.12,0,.24-.08.36a.14.14,0,0,1-.07,0l-.06,0c-.06,0-.09-.07-.08-.11a.38.38,0,0,0,0-.15.17.17,0,0,1-.12,0,.12.12,0,0,1-.12-.08.58.58,0,0,1,0-.19c0-.07,0-.14,0-.2a.58.58,0,0,0,0-.1.68.68,0,0,0,0-.13c0-.07,0-.15.08-.24s.06-.18.09-.29l.09-.27,1.1-4.3c0-.14.07-.27.1-.41a3.39,3.39,0,0,0,.08-.39c0-.09,0-.19,0-.29s0-.21,0-.31a2,2,0,0,1,0-.26v-.13l.06-.12a.17.17,0,0,1,.12-.05s0,0,0,0,0,0,0,0a.22.22,0,0,1,.09-.07l.09-.08a1,1,0,0,0,0-.1.16.16,0,0,1,0-.08l0,0h.06a.1.1,0,0,1,.07,0s0,0,0,.06v.08a.45.45,0,0,0,0,.11.25.25,0,0,0,0-.09.29.29,0,0,1,0-.09l0-.1a.12.12,0,0,1,.23,0,1,1,0,0,1,.09.15.13.13,0,0,0,.11-.07s0-.08,0-.12a.3.3,0,0,1,0-.1.1.1,0,0,1,.1-.05.17.17,0,0,1,.12.06.77.77,0,0,1,.09.13.18.18,0,0,1,0,.1.17.17,0,0,0,0,.1l0,0H125a6.94,6.94,0,0,1,.91.05,3.77,3.77,0,0,1,.85.17,1.1,1.1,0,0,1,.58.37.28.28,0,0,0,.1.09.38.38,0,0,1,.09.09c0,.06.09.13.14.22l.12.28c0,.1.06.19.08.28a1,1,0,0,1,0,.25s0,.08-.07.16a1.28,1.28,0,0,0-.09.22,1.55,1.55,0,0,0-.06.31.72.72,0,0,1-.11.31,3.14,3.14,0,0,1-.4.52c-.17.18-.33.33-.49.47a3.68,3.68,0,0,1-.41.35c-.12.1-.17.15-.17.17s0,.1,0,.23a3.24,3.24,0,0,0,.09.4c.06.24.13.51.22.83s.17.62.24.91.14.54.19.75A1.11,1.11,0,0,1,126.88,37Zm-5.72,0a.4.4,0,0,1,0-.32.89.89,0,0,0,.08-.32,1.25,1.25,0,0,0,0,.32C121.18,36.75,121.17,36.86,121.16,37Zm.43-1.86c0,.17-.08.33-.13.51s-.11.34-.16.49a2.63,2.63,0,0,0,.19-.54A3.62,3.62,0,0,0,121.59,35.1Zm.09,1.19.14-.57h-.06l-.12.57Zm.23-1.46.12-.53h0l-.12.53Zm.34,1.43.32-1.39h0l-.32,1.39Zm1.19-6.11a.75.75,0,0,0,0-.17,2.54,2.54,0,0,0,0-.29c0-.11,0-.21,0-.31a.78.78,0,0,0,0-.24l-.59,2.56q.07-.12.15-.27a1.28,1.28,0,0,0,.08-.2l.21-.88a.27.27,0,0,1,0-.11A.41.41,0,0,0,123.44,30.15Zm2.32,1.45a.3.3,0,0,0-.09-.31,1,1,0,0,0-.33-.22,2,2,0,0,0-.41-.13,1.6,1.6,0,0,0-.32,0h-.1a.51.51,0,0,1-.17,0h-.17c-.06,0-.09,0-.09-.05l-.33,1.7h.72l.18,0,.21,0,.19-.06a1.17,1.17,0,0,0,.23-.11.62.62,0,0,0,.2-.15.21.21,0,0,0,.06-.1l.09-.18a1.08,1.08,0,0,0,.08-.19A.79.79,0,0,0,125.76,31.6ZM124.57,30l-.15,0-.15,0h.14c.06,0,.09,0,.1,0h.06Zm-.22-.26v0h-.06l0,0Zm.1,4.19h-.1a.1.1,0,0,0,0,.09.16.16,0,0,1,0,.09.08.08,0,0,1,0-.08A.93.93,0,0,1,124.45,33.93Zm.22-4.19v0l-.17,0v.05Zm0,5.62-.09-.34,0,0,.09.32Zm.92-4.73a.18.18,0,0,0-.11-.05h-.09a.91.91,0,0,0,.17.09l.14.06Zm.18,3.06,0-.08h0l0,.07Zm.11,1,0-.07h-.06v.07Zm.36-1.8v0l-.34.2,0,0Zm.37-2.1a1.86,1.86,0,0,0-.19-.37.42.42,0,0,0-.31-.21,2.27,2.27,0,0,1,.25.27Zm-.46,1.11a.66.66,0,0,0,.09-.28.78.78,0,0,0,0-.27l0,.29C126.22,31.77,126.21,31.85,126.2,31.93Zm.21.91v0l-.11.07v0Zm.36-.72h0l-.08.15h0Zm.63-.7,0-.15h0l0,.15Zm.14-.82v-.07h0v.06Z"/><path class="cls-1" d="M133.93,30.61a.27.27,0,0,1-.08.16.27.27,0,0,1-.13.05.11.11,0,0,1-.08,0,.08.08,0,0,1,0-.07.21.21,0,0,0-.08.06.1.1,0,0,1-.09,0h-.06l0,0a1.64,1.64,0,0,0-.22-.25,2.88,2.88,0,0,0-.27-.22l-.3-.17-.27-.1h0l.38.28a1.81,1.81,0,0,1,.37.36.56.56,0,0,1,.1.14,1.14,1.14,0,0,1,.1.19c0,.06,0,.12.07.17s0,.08,0,.09,0,0,0,0,0,0,0,.05a0,0,0,0,0,0,0h-.07a.06.06,0,0,1-.06,0l-.06-.07-.08-.07a.14.14,0,0,0-.11,0l.06.07a.11.11,0,0,1,0,.1.14.14,0,0,1-.08.11l-.08,0-.09-.07-.18-.17-.22-.19-.22-.15a.58.58,0,0,0-.22-.06l-.24,0a2.56,2.56,0,0,0-.36-.07l-.26,0h-.12l-.13,0a.62.62,0,0,0-.19.09,1.37,1.37,0,0,0-.21.15,1.7,1.7,0,0,0-.19.19.39.39,0,0,0-.1.19.25.25,0,0,0,0,.1.4.4,0,0,0,0,.15.89.89,0,0,0,.09.16.36.36,0,0,0,.15.12,1.65,1.65,0,0,0,.32.11l.4.12.57.21a4,4,0,0,1,.55.27,2.6,2.6,0,0,1,.28.24,2.33,2.33,0,0,1,.27.35,2.52,2.52,0,0,1,.21.4,1.62,1.62,0,0,1,.09.4s0,.09,0,.16a.53.53,0,0,1,0,.17.62.62,0,0,1,0,.11,1.6,1.6,0,0,1,0,.21l-.06.24-.07.2s0,.1-.08.18a1.13,1.13,0,0,1-.12.21,3.06,3.06,0,0,1-.2.3c-.1.12-.21.26-.34.4a5.76,5.76,0,0,1-.44.41,2.6,2.6,0,0,1-.48.31,2.65,2.65,0,0,1-.75.21,6.05,6.05,0,0,1-.82.07h-.38l-.2,0-.18,0-.32-.06A1.27,1.27,0,0,1,128,37a2.56,2.56,0,0,1-.35-.22l-.32-.27-.29-.26A.22.22,0,0,0,127,36l-.17-.14-.17-.12a.14.14,0,0,1,0-.16s.08-.09.22-.14l-.11-.08-.13-.09a1.27,1.27,0,0,1-.12-.1s0-.07,0-.11a.19.19,0,0,1,0-.09l0,0h.09s.06,0,.1.08a.32.32,0,0,0,.15.13,1.12,1.12,0,0,0,.38.11l.4,0h0s0,0,0,0a1.37,1.37,0,0,0-.21-.18c-.09-.07-.13-.14-.12-.2s0-.06,0-.06l0,0s0,0,0,0a.42.42,0,0,0,.08-.13l.06,0,.08,0,.09,0,.14.1.14.09.09,0a.08.08,0,0,0,.07,0,.08.08,0,0,1,.07,0,.08.08,0,0,1,.08,0,.13.13,0,0,0,.07.06l.39.19a2.38,2.38,0,0,0,.29.13,1.38,1.38,0,0,0,.27.08,1.42,1.42,0,0,0,.31,0h.17a.3.3,0,0,0,.19,0,.78.78,0,0,0,.18-.13l.19-.17a1.29,1.29,0,0,0,.27-.32,1.52,1.52,0,0,0,.09-.25.42.42,0,0,0,0-.28.38.38,0,0,0-.26-.21,5.88,5.88,0,0,0-.81-.18,2.62,2.62,0,0,1-.75-.23,4.64,4.64,0,0,1-.49-.3,1.81,1.81,0,0,1-.45-.42.5.5,0,0,1-.09-.22c0-.1,0-.19-.05-.26a1,1,0,0,1,0-.15l0-.15a1.08,1.08,0,0,1,.06-.18c0-.1.07-.22.13-.37s.1-.3.15-.46l.16-.43a1.08,1.08,0,0,1,.13-.2l.19-.2a2.06,2.06,0,0,1,.5-.48,3.5,3.5,0,0,1,.56-.32,3.23,3.23,0,0,1,.56-.17,2.35,2.35,0,0,1,.5-.05h.23l.13,0h.09l.16,0,.17,0,.28,0a2.77,2.77,0,0,1,.48.11,2.84,2.84,0,0,1,.38.17,3.37,3.37,0,0,1,.44.26,2.88,2.88,0,0,1,.39.3.93.93,0,0,1,.24.31.67.67,0,0,1,.06.12A.17.17,0,0,1,133.93,30.61Zm-6.56,5.08-.27-.12-.27-.11.2.19a.35.35,0,0,0,.17.1l.1,0Zm1.07-2.85-.21-.4a.8.8,0,0,1,0-.47l-.07.25a.43.43,0,0,0,0,.19.58.58,0,0,0,.07.19.79.79,0,0,0,.12.15Zm.07,4v0h-.08v0Zm.2-.51h-.21l.07,0,.09,0Zm-.05.54V36.8h-.12v.05Zm0-1.14v0l-.12,0v0Zm.41,1.22v0l-.42,0v0Zm-.31-1.2v0h-.07v0Zm.07,0v0h-.08v0ZM130,29.59a3.7,3.7,0,0,0-.42.19,1.42,1.42,0,0,0-.38.27l.43-.27A3.3,3.3,0,0,1,130,29.59Zm-.57,3.81-.07,0-.09-.05a.12.12,0,0,0,.07.07A.16.16,0,0,0,129.43,33.4Zm.23-.43-.12-.11a.17.17,0,0,0-.12-.06h-.08a.57.57,0,0,0,.16.09Zm1.67,3.37-.36.15-.32.12a1.4,1.4,0,0,0,.37-.07A.54.54,0,0,0,131.33,36.34Zm-.08-2.83a.56.56,0,0,0-.29-.14l.15.07A.37.37,0,0,1,131.25,33.51Zm.51-3.55-.09-.06-.12,0-.14,0-.14.05h.13Zm-.31.44s0,0,0,0h0Zm.86,3-.08-.17,0,0,.08.17Zm.34-2.7-.18-.15a1.24,1.24,0,0,0-.19-.16l0,.1.2.11Zm-.27,3.06,0-.07h-.05l0,.07Z"/><path class="cls-1" d="M142.32,37s0,.06-.06.1a.16.16,0,0,1-.1,0c-.08,0-.12,0-.13-.09s0-.09,0-.11l0,0-.06,0a.46.46,0,0,1,0-.09.27.27,0,0,0,0-.12h0l0-.05s0,0,0,.05a.07.07,0,0,0,0,.07.12.12,0,0,0,0,.1c0,.05,0,.1,0,.16a.88.88,0,0,1,.05.15s0,.08,0,.1l0,.17-.05,0h-.08c-.06,0-.09,0-.11-.12a.82.82,0,0,1,0-.21.11.11,0,0,0-.08,0,.08.08,0,0,1-.07,0l-.08-.12a.46.46,0,0,0-.07-.14.51.51,0,0,0-.18.24.72.72,0,0,1-.14.26h-.13a.57.57,0,0,1,0-.14.94.94,0,0,0,0-.16,1.13,1.13,0,0,0-.1-.13.31.31,0,0,0-.16-.09.13.13,0,0,0-.07.09.53.53,0,0,0,0,.13.23.23,0,0,1,0,.12s-.05.06-.12.06a.13.13,0,0,1-.11-.1.73.73,0,0,1-.06-.21.89.89,0,0,1,0-.22.83.83,0,0,1,0-.12L140,36c0-.17-.06-.34-.08-.52l-.22,0-.23.05-.21,0h-1l-.26,0a3.1,3.1,0,0,1-.38.07s-.06,0-.06.06a.59.59,0,0,0,0,.08,1.36,1.36,0,0,1,0,.17,1.21,1.21,0,0,1,0,.18,1.78,1.78,0,0,1-.18.28l-.26.33a.13.13,0,0,1-.12.06c-.05,0-.07,0-.08,0a.11.11,0,0,1,0-.08.26.26,0,0,1,0-.11.49.49,0,0,0,0-.12.76.76,0,0,0-.09.16.18.18,0,0,1-.17.11h-.06a.35.35,0,0,1,0-.2,1.13,1.13,0,0,0-.11-.11,1,1,0,0,0-.15-.11l-.39.43-.4.44a.06.06,0,0,1-.06,0,.06.06,0,0,0-.06,0l-.07-.06a.1.1,0,0,1,0-.09s0-.05.07-.11a1.74,1.74,0,0,0,.13-.2l.17-.24a1.79,1.79,0,0,0,.13-.22h0v0a1.42,1.42,0,0,0-.18.22.76.76,0,0,1-.24.23l-.13,0-.13,0s-.08,0-.08-.09a.14.14,0,0,1,0-.09,1.61,1.61,0,0,1,.14-.38l.22-.41c.08-.14.16-.28.25-.41l.22-.37q.24-.43.57-1c.22-.35.46-.74.71-1.17.12-.19.25-.41.4-.67s.3-.5.46-.74l.46-.68c.15-.23.3-.45.44-.68a4.31,4.31,0,0,1,.32-.44l.33-.43.1-.1a.31.31,0,0,1,.13-.05h.77l.2,0a.37.37,0,0,1,.14.07.35.35,0,0,1,.09.11.53.53,0,0,1,.08.17c0,.28.11.58.18.89s.14.65.22,1,.15.67.22,1,.13.66.18,1a.77.77,0,0,1,0,.27,1.37,1.37,0,0,0,0,.35c0,.11,0,.26.08.45s.08.38.12.6.09.45.13.67.09.44.12.64c0,0,0,.1,0,.16a1.29,1.29,0,0,1,0,.19c0,.07,0,.12,0,.17A.12.12,0,0,1,142.32,37Zm-7-.75h0l-.07.15h0Zm.84-1.46-.49.84a1.57,1.57,0,0,0,.22-.25,1.06,1.06,0,0,0,.19-.43A.4.4,0,0,1,136.2,34.83Zm.45.41,0-.09-.15.2a1.43,1.43,0,0,0-.15.22.94.94,0,0,1,.17-.18A.31.31,0,0,0,136.65,35.24Zm.38.95h0l-.11.2h.05Zm.36-2.82h0L137,34l0,0Zm1.61,1-.26,0-.2,0a.73.73,0,0,0-.18,0l-.21,0,0,.06,0,.06.5-.07Zm.75-.28,0-.09a1.57,1.57,0,0,0,0-.41,5.54,5.54,0,0,0,0-.56,3.62,3.62,0,0,0-.12-.52c0-.16-.1-.25-.17-.28l-.1.09s-.07,0-.08.08-.09.23-.14.33a1.06,1.06,0,0,1-.15.28c-.11.17-.23.35-.34.54l-.35.54Zm-.71-2.5h0l-.13.25,0,0Zm.12-.74h0l-.09.25h0Zm.48-1a1.47,1.47,0,0,0-.28.52,4.56,4.56,0,0,1-.19.49,1.92,1.92,0,0,1,.18-.31,1.81,1.81,0,0,0,.19-.29.93.93,0,0,0,.05-.21A.53.53,0,0,1,139.64,29.85Zm.16,4.77a.08.08,0,0,1,0-.06.08.08,0,0,0,0-.05l-.24,0a1.14,1.14,0,0,0-.22.07l.15.1a.34.34,0,0,0,.14.05.19.19,0,0,0,.12-.06A.73.73,0,0,1,139.8,34.62Zm-.11-2.95a.82.82,0,0,0,0-.18.88.88,0,0,1,0-.21.66.66,0,0,1-.07.15.73.73,0,0,0-.06.14l-.08.32.15-.09A.34.34,0,0,0,139.69,31.67Zm.76,3c0-.12,0-.24,0-.35l0-.34a3.33,3.33,0,0,1-.05-.37,4.63,4.63,0,0,1,0-.46l0,.14a1.79,1.79,0,0,0,0,.27c0,.12,0,.26,0,.41l.06.42C140.43,34.49,140.44,34.59,140.45,34.64Zm0,.33,0-.31h0l0,.31Zm.47-.18,0-.26h0l0,.25Zm0-1.56,0-.14v0a1.22,1.22,0,0,0,0-.27c0-.11,0-.2,0-.29,0,.12,0,.24,0,.35A1.71,1.71,0,0,1,140.94,33.23Z"/><path class="cls-1" d="M148.71,32.71a.24.24,0,0,1-.14.06.16.16,0,0,1-.1,0h-.06s0,0,.06,0h.08l0,.06,0,0a.25.25,0,0,0,0,.12.14.14,0,0,1,0,.11.23.23,0,0,1,0,.09l-.06.15-.06.15a.33.33,0,0,0,0,.1l-.16.67-.06.13a.8.8,0,0,1-.08.16A1.82,1.82,0,0,0,148,35a1.57,1.57,0,0,0-.06.28,1.41,1.41,0,0,1-.06.22.69.69,0,0,1-.12.22l-.23.18-.46.31-.49.3a.92.92,0,0,1-.32.12h-.05s0,0-.06,0a.58.58,0,0,0-.17.11.94.94,0,0,1-.35.16l-.34,0-.36,0h-.48a2.5,2.5,0,0,1-1-.21,3.08,3.08,0,0,1-.93-.72,1.37,1.37,0,0,1-.16-.32l-.06-.33c0-.12,0-.24,0-.35a1.25,1.25,0,0,1,0-.33,1.09,1.09,0,0,0,0-.36c0-.13,0-.26-.05-.39a1.54,1.54,0,0,1,.05-.46.42.42,0,0,1,0-.09l.06-.16.07-.18.07-.18c.07-.22.12-.4.18-.56s.11-.31.17-.46a4.51,4.51,0,0,1,.22-.44c.08-.14.18-.3.3-.47a1.4,1.4,0,0,1,.3-.3,4.81,4.81,0,0,0,.4-.36,2.49,2.49,0,0,1,.61-.52,3.77,3.77,0,0,1,.56-.24l.18-.07a.6.6,0,0,1,.2-.07h.13l.13,0a.75.75,0,0,0,.15,0h.16l.14,0h.09a2.5,2.5,0,0,1,.49.07,4.89,4.89,0,0,1,.58.19,4.68,4.68,0,0,1,.55.27,1.66,1.66,0,0,1,.43.34.74.74,0,0,1,.21.37.43.43,0,0,1-.13.37c0,.06,0,.12,0,.2a.42.42,0,0,1,0,.16.2.2,0,0,1-.07.1.14.14,0,0,1-.1.06h0s0,0,0,0a.3.3,0,0,0-.06.11s-.05.05-.11.05a.12.12,0,0,1-.1-.06c0-.05-.07-.07-.11-.07a.08.08,0,0,0-.07,0,.08.08,0,0,1-.07,0,.1.1,0,0,1-.1-.06s0-.09,0-.14a1,1,0,0,1,0-.16.49.49,0,0,0,0-.13.12.12,0,0,0,0-.08l-.08-.11h0l0,.05a.73.73,0,0,1,0,.08c0,.05,0,.11.05.18a1.74,1.74,0,0,1,.05.22.38.38,0,0,1,0,.19,1.12,1.12,0,0,0-.23.18q-.13.12-.18.12s-.06,0-.1-.09l-.13-.13a.18.18,0,0,1,0-.06.08.08,0,0,0,0-.07.78.78,0,0,0-.18-.33.6.6,0,0,0-.31-.22h-.25a3.64,3.64,0,0,0-.48,0,1.25,1.25,0,0,0-.44.14,2,2,0,0,0-.45.36,5.33,5.33,0,0,0-.54.66,1.29,1.29,0,0,0-.16.31c0,.12-.08.24-.12.35l-.07.3a.74.74,0,0,1,0,.16.93.93,0,0,1,0,.13c0,.08,0,.16,0,.26s0,.2,0,.31a2.36,2.36,0,0,0,0,.25,2.15,2.15,0,0,0,.06.25,1,1,0,0,0,.11.28,3.15,3.15,0,0,0,.22.29l.23.28a.19.19,0,0,0,.13.09l.17.07h.2a1.62,1.62,0,0,0,.68-.17,2.63,2.63,0,0,0,.78-.7.14.14,0,0,0,0-.11.29.29,0,0,1,0-.1.5.5,0,0,1,0-.12.57.57,0,0,0,0-.13l-.08,0h-1.13a.12.12,0,0,1,0-.11c0-.07,0-.1.06-.1s.07,0,.14,0a.18.18,0,0,0-.07-.09s-.06-.06-.05-.09a.19.19,0,0,1,.09-.13.34.34,0,0,1,.14,0h.19l.19,0a1.62,1.62,0,0,0-.32,0h-.24l-.13,0a.27.27,0,0,1-.12-.07l0-.13a.94.94,0,0,1,.26-.07l0-.07-.07,0h-.15s0,0,0-.06l0-.1a.59.59,0,0,1,.14-.06l.12,0,.06-.08a.11.11,0,0,1,.07-.06l.21,0,.22,0h.76a.1.1,0,0,0,.08,0,.22.22,0,0,1,.09-.08h1l.19,0,.19,0,.1,0a.69.69,0,0,1,.24.05.54.54,0,0,1,.14.07Zm-6.2,1.68v-.26h0v.26Zm.94.92-.07-.12a.64.64,0,0,0-.1-.13l0,.1a.2.2,0,0,0,.08.08Zm.73.89-.31-.12v0l.3.12Zm0-.48-.12-.1-.11-.1a.17.17,0,0,0,.11.14Zm.49-5.55a1.64,1.64,0,0,0-.26.17,1,1,0,0,0-.23.22,2,2,0,0,0,.24-.19A2,2,0,0,1,144.7,30.17Zm.15.6a.38.38,0,0,0-.11.11.33.33,0,0,0-.08.11l.1-.11Zm.87,4.87a1.17,1.17,0,0,1-.37.13h-.45a.37.37,0,0,1-.16,0l.18.1a.58.58,0,0,0,.17,0l.23-.06.26-.08.07-.06Zm-.41-5.13v0l-.06,0v0Zm1-.79-.08,0h-.09a.74.74,0,0,0-.32.07l-.29.13a1.82,1.82,0,0,1,.4-.11Zm.58,1.05a.43.43,0,0,0,0-.14c0-.05,0-.07-.08-.06h-.2l.16.11A.38.38,0,0,0,146.92,30.77Zm.09-.49a.12.12,0,0,1,0-.08h-.15l.09.05Zm.06,2.92-.1,0a.2.2,0,0,1-.11,0l.14,0,.05,0Zm0,.85h0l-.11.25h0Zm.15-4.12v0h-.08v0Zm.34,4.83a1.13,1.13,0,0,0-.1.13.24.24,0,0,0,0,.12,1,1,0,0,0,.08-.14Zm0,.79,0,0-.08.09,0,0Zm.36-4.95a.94.94,0,0,0-.1-.1l-.11-.09a.33.33,0,0,1,0,.12.35.35,0,0,0,.07.11A.15.15,0,0,1,147.89,30.6Z"/><path class="cls-1" d="M154.84,37s0,.06-.06.1a.16.16,0,0,1-.1,0c-.08,0-.12,0-.13-.09s0-.09,0-.11l0,0a.18.18,0,0,1-.07,0l0-.09a.27.27,0,0,0,0-.12h0l0-.05s0,0-.05.05a.07.07,0,0,0,0,.07.19.19,0,0,0,0,.1,1.42,1.42,0,0,0,.05.16.83.83,0,0,1,0,.15.12.12,0,0,1,0,.1l0,.17-.05,0h-.08c-.06,0-.09,0-.11-.12a.82.82,0,0,1,0-.21s0,0-.08,0a.08.08,0,0,1-.07,0,.37.37,0,0,1-.07-.12,1,1,0,0,0-.08-.14.51.51,0,0,0-.18.24.72.72,0,0,1-.14.26h-.13s0-.09,0-.14a.47.47,0,0,0,0-.16l-.09-.13a.39.39,0,0,0-.17-.09.13.13,0,0,0-.07.09.56.56,0,0,0,0,.13.37.37,0,0,1,0,.12s0,.06-.12.06-.08,0-.11-.1a.73.73,0,0,1-.06-.21l0-.22a.83.83,0,0,1,0-.12l-.09-.52c0-.17-.06-.34-.08-.52l-.21,0-.24.05-.21,0h-1l-.26,0a3.1,3.1,0,0,1-.38.07s-.05,0-.06.06l0,.08,0,.17a1.27,1.27,0,0,1-.06.18,1.78,1.78,0,0,1-.18.28l-.26.33a.13.13,0,0,1-.12.06s-.07,0-.08,0a.21.21,0,0,1,0-.08l0-.11a.25.25,0,0,0,0-.12.76.76,0,0,0-.09.16.18.18,0,0,1-.17.11H149a.28.28,0,0,1,0-.2l-.11-.11-.16-.11-.39.43-.39.44a.09.09,0,0,1-.07,0,.06.06,0,0,0-.06,0l-.07-.06a.1.1,0,0,1,0-.09l.07-.11.14-.2.16-.24a1.79,1.79,0,0,0,.13-.22h0v0a1.42,1.42,0,0,0-.18.22.76.76,0,0,1-.24.23.4.4,0,0,1-.13,0l-.13,0c-.05,0-.08,0-.08-.09a.14.14,0,0,1,0-.09,2.22,2.22,0,0,1,.14-.38l.22-.41c.08-.14.16-.28.25-.41s.16-.25.22-.37q.24-.43.57-1c.23-.35.46-.74.71-1.17.12-.19.25-.41.4-.67s.3-.5.46-.74l.46-.68c.16-.23.3-.45.45-.68a3,3,0,0,1,.31-.44l.33-.43a.57.57,0,0,1,.11-.1.24.24,0,0,1,.12-.05h.77l.2,0a.3.3,0,0,1,.14.07.57.57,0,0,1,.1.11.87.87,0,0,1,.07.17c.05.28.11.58.18.89s.14.65.22,1,.15.67.22,1,.13.66.18,1a.77.77,0,0,1,0,.27,1,1,0,0,0,0,.35,4.4,4.4,0,0,0,.08.45c0,.18.07.38.11.6s.09.45.13.67.09.44.12.64c0,0,0,.1,0,.16s0,.13.05.19a.71.71,0,0,0,0,.17A.16.16,0,0,1,154.84,37Zm-7-.75h0l-.07.15h0Zm.84-1.46-.49.84a1.19,1.19,0,0,0,.22-.25.89.89,0,0,0,.13-.23c0-.07,0-.14.07-.2A.39.39,0,0,1,148.72,34.83Zm.45.41,0-.09-.15.2a.9.9,0,0,0-.14.22.86.86,0,0,1,.16-.18A.31.31,0,0,0,149.17,35.24Zm.38.95h0l-.11.2h0Zm.36-2.82h0l-.39.64,0,0Zm1.61,1-.26,0-.2,0-.18,0-.21,0,0,.06,0,.06.5-.07Zm.75-.28,0-.09a2.42,2.42,0,0,0,0-.41,3.64,3.64,0,0,0-.05-.56c0-.19-.07-.36-.11-.52a.46.46,0,0,0-.17-.28l-.11.09s-.07,0-.08.08a2.52,2.52,0,0,1-.14.33,1.06,1.06,0,0,1-.15.28c-.11.17-.23.35-.34.54l-.35.54Zm-.71-2.5h0l-.14.25,0,0Zm.12-.74h-.05l-.09.25h.05Zm.48-1a1.47,1.47,0,0,0-.28.52,4.56,4.56,0,0,1-.19.49,1.92,1.92,0,0,1,.18-.31,1.32,1.32,0,0,0,.19-.29.59.59,0,0,0,.05-.21A.83.83,0,0,1,152.16,29.85Zm.16,4.77s0,0,0-.06,0,0,0-.05l-.24,0a1.14,1.14,0,0,0-.22.07l.16.1a.27.27,0,0,0,.13.05.17.17,0,0,0,.12-.06Zm-.11-2.95a.47.47,0,0,0,0-.18.88.88,0,0,1,0-.21.4.4,0,0,1-.07.15.73.73,0,0,0-.06.14l-.08.32a.42.42,0,0,0,.15-.09C152.16,31.75,152.2,31.71,152.21,31.67Zm.76,3c0-.12,0-.24,0-.35l0-.34c0-.11,0-.23-.05-.37a4.63,4.63,0,0,1,0-.46l0,.14a1.79,1.79,0,0,0,0,.27c0,.12,0,.26.05.41l.06.42C153,34.49,153,34.59,153,34.64Zm0,.33,0-.31h0l0,.31Zm.47-.18,0-.26h0l0,.25Zm0-1.56,0-.14v0a.81.81,0,0,0,0-.27,2.18,2.18,0,0,0-.05-.29c0,.12,0,.24,0,.35A1.71,1.71,0,0,1,153.46,33.23Z"/><path class="cls-1" d="M157.13,35.4l0,.05a1.2,1.2,0,0,1,0,.14l-.09.34c0,.16-.1.38-.16.67a.75.75,0,0,1-.07.12.21.21,0,0,1-.12.05l-.06,0s0-.06,0-.12l.13-.61a1,1,0,0,0-.13.31l-.07.24,0,.15a1.21,1.21,0,0,0,0,.18l0,0s0,.05,0,.09l0,.13,0,.05a.1.1,0,0,1-.07,0,.07.07,0,0,1-.07-.06.06.06,0,0,0-.06-.05l-.13,0a.35.35,0,0,1-.14,0s-.05,0-.06.06a.11.11,0,0,1-.08,0s-.06,0-.06,0l-.06,0h-.06s0,0-.06,0a.19.19,0,0,1-.16-.07.16.16,0,0,1-.05-.12s0,0,0,0a.3.3,0,0,1-.08.08h-.17a.29.29,0,0,0,0-.09.16.16,0,0,1,0-.1l-.07-.09a.26.26,0,0,1-.07-.1.72.72,0,0,1,0-.3c0-.14,0-.27,0-.39s0-.12.05-.2,0-.15,0-.23l0,0a.05.05,0,0,1,0,0,.45.45,0,0,1,0-.12.48.48,0,0,0,0-.12l.59-2.11.18-.79a1.43,1.43,0,0,0,.05-.17c0-.1,0-.21.09-.34s.06-.25.1-.37a2.78,2.78,0,0,1,.09-.27l.06-.09a.45.45,0,0,0,.06-.12,1,1,0,0,0,0-.21,1.39,1.39,0,0,0,0-.29c0-.09,0-.18,0-.29s.05-.21.07-.31a.1.1,0,0,1,.08-.06l.11,0a2.48,2.48,0,0,0,0-.33.9.9,0,0,1,.09-.33l0-.06a.13.13,0,0,1,.09,0c.05,0,.08,0,.08.05a.45.45,0,0,1,0,.11.56.56,0,0,0,0,.12s0,.07,0,.09a.46.46,0,0,0,.19-.13c.06-.07.11-.1.15-.1a.06.06,0,0,1,.06,0s0,0,.07,0l.07,0,.12-.05.11,0a.15.15,0,0,1,.09,0,.16.16,0,0,1,.09,0l.1,0a.29.29,0,0,0,.14-.08.29.29,0,0,1,.14-.08.14.14,0,0,1,.09.05l.06.09a.17.17,0,0,1,0,.14,1,1,0,0,1,0,.13l-.09.24a2.17,2.17,0,0,0-.07.24c-.05.19-.1.37-.14.56a5.48,5.48,0,0,0-.1.56.51.51,0,0,0,0,.09.24.24,0,0,1,0,.12s0,.08,0,.15,0,.15-.06.24l-.06.24a1,1,0,0,0,0,.17c-.05.14-.09.27-.14.4a2.31,2.31,0,0,0-.1.37c0,.07,0,.2-.06.37s0,.32-.07.45a1,1,0,0,0,0,.12,1.1,1.1,0,0,1,0,.18.9.9,0,0,1,0,.18v.11l-.19.78a.77.77,0,0,0,0,.18A.44.44,0,0,1,157.13,35.4Zm-1.35,1.36a1.23,1.23,0,0,0,0-.19,1.15,1.15,0,0,1,0-.19,2.28,2.28,0,0,0-.15.44A.17.17,0,0,0,155.78,36.76Zm.28-1.19.24-1h-.05l-.23,1Zm1.13-5.5a.35.35,0,0,0,0-.15,1.36,1.36,0,0,0,0-.17l-.26,1.12c0-.07,0-.14.08-.23l.09-.25c0-.08.05-.15.08-.21Zm0,1.93a.08.08,0,0,0,0,0,0,0,0,0,0,0,0,3.7,3.7,0,0,0-.09.4c0,.13-.06.27-.1.41.07-.17.13-.35.19-.52s.1-.36.14-.53.06-.35.08-.51a3.8,3.8,0,0,0,0-.43,1.29,1.29,0,0,1,0,.24l-.06.32a2.82,2.82,0,0,1-.07.31Zm.42-1.85c-.07.17-.13.32-.17.45,0-.08.06-.16.09-.23A1.43,1.43,0,0,1,157.59,30.15Zm.22-.58c-.08,0-.12.06-.13.09a1.17,1.17,0,0,0-.05.11l.11-.1S157.81,29.6,157.81,29.57Z"/><path class="cls-1" d="M164.64,30.22l-1.34,5.37c0,.08-.06.16-.1.25a1.63,1.63,0,0,1-.11.23.15.15,0,0,1-.07,0,.12.12,0,0,0-.08.06.39.39,0,0,0-.1.14.39.39,0,0,0-.05.14.25.25,0,0,0,0,.16.3.3,0,0,1,0,.17.15.15,0,0,1-.06.09l-.09,0-.07,0a.16.16,0,0,1,0-.07l-.17.09a.41.41,0,0,1-.16,0q-.08,0-.12-.12a.18.18,0,0,1,0-.21l-.09,0H162a.22.22,0,0,0-.1-.13l0,.1a.2.2,0,0,1-.08.08h-.08a.3.3,0,0,1-.07-.08,1.21,1.21,0,0,1,.07-.2.23.23,0,0,0,0-.19.38.38,0,0,0-.07-.18l-.13-.22c-.1-.2-.21-.43-.34-.67a2.4,2.4,0,0,1-.27-.69,1.13,1.13,0,0,0-.13-.32,1.19,1.19,0,0,1-.15-.35c0-.07,0-.14,0-.23l0-.27a1.53,1.53,0,0,0-.08-.26.62.62,0,0,0-.15-.22c0,.09-.06.19-.09.3l-.12.32-.1.27c0,.07-.05.12,0,.14l-.29,1.2a1.28,1.28,0,0,1-.08.2l-.13.28a2.42,2.42,0,0,0-.11.35c0,.14-.08.27-.11.39a.5.5,0,0,0,0,.12,1.33,1.33,0,0,1,0,.19.49.49,0,0,1-.08.18.14.14,0,0,1-.11.08.12.12,0,0,1-.09,0,.08.08,0,0,1,0-.07.1.1,0,0,1,0-.07.43.43,0,0,1,0-.05s0,0,0,0h-.07a.22.22,0,0,0,0,.08.54.54,0,0,1-.05.11.28.28,0,0,1-.08.11.16.16,0,0,1-.11,0,.1.1,0,0,1-.08,0l0-.09-.05,0s0,0-.07,0-.06,0-.06,0,0,0,0,0a.38.38,0,0,0-.11.17.32.32,0,0,1-.18.18l-.06,0,0,0a.5.5,0,0,1,0-.12l.06-.13a.61.61,0,0,0,0-.13.11.11,0,0,0,0-.11l-.09,0a.13.13,0,0,0-.05.07.22.22,0,0,0,0,.09s0,.09,0,.14a.57.57,0,0,1,0,.13v.09a.15.15,0,0,1-.16.13s-.07,0-.09-.08a1.16,1.16,0,0,1,0-.18c0-.06,0-.15,0-.26,0-.36,0-.73.08-1.11,0-.07,0-.14,0-.24a2.86,2.86,0,0,1,.07-.28q0-.13.06-.24a2.91,2.91,0,0,0,.06-.27c0-.09,0-.19.07-.3l.09-.35.1-.32.08-.22a2.44,2.44,0,0,0,.1-.24c0-.08.06-.14.08-.2a.31.31,0,0,0,0-.12l.37-1.56a1.22,1.22,0,0,0,0-.21,1.5,1.5,0,0,1,.07-.32.61.61,0,0,1,0-.12.48.48,0,0,0,.05-.14.85.85,0,0,0,0-.23c0-.08,0-.17,0-.26s0-.19,0-.29a1.22,1.22,0,0,1,0-.32.31.31,0,0,1,.26-.1.7.7,0,0,0,.29,0l.05,0a.11.11,0,0,1,.08,0c.06,0,.09,0,.09.11s0,.11,0,.14a1.22,1.22,0,0,1,0,.33,2.54,2.54,0,0,1,0,.29c0,.1,0,.19-.05.27a.77.77,0,0,0,0,.21h0a.68.68,0,0,0,0-.21c0-.12.06-.34.13-.65a.24.24,0,0,1,.06-.09l.1-.1a.06.06,0,0,1,0-.08.23.23,0,0,1,.07-.1l.1-.1.08-.09,0,0h.06a.21.21,0,0,1,.12.05.26.26,0,0,1,.08.11.13.13,0,0,1,0,.1.41.41,0,0,1,0,.11l0,0h0a.14.14,0,0,0,.1-.06.58.58,0,0,1,.12-.1.14.14,0,0,1,.09.13.43.43,0,0,1,0,.19c0,.07,0,.14,0,.21a.3.3,0,0,0,0,.19,2.92,2.92,0,0,0,.13.34c.05.13.11.26.16.4s.11.27.16.41.1.26.13.38a3.89,3.89,0,0,0,.37.89c.15.27.3.55.43.85l.37-1.63.06-.17c0-.08.06-.15.07-.19a1.41,1.41,0,0,0,0-.22,2.16,2.16,0,0,1,0-.28c0-.26.09-.53.16-.81s.12-.57.16-.87h0l.07,0s.06,0,.07,0a.1.1,0,0,0,0,.05.51.51,0,0,0,.09-.14.1.1,0,0,1,.1-.05s0,0,.07.05l.07.11.06.1,0,.06a.91.91,0,0,0,.06-.26,2.91,2.91,0,0,1,0-.31l.05-.06a.14.14,0,0,1,.09,0,.08.08,0,0,1,.08.05.36.36,0,0,1,0,.11v.12s0,.06,0,.07,0,0,.07.05l.08,0a1,1,0,0,1,0,.25q0,.12,0,.27a.64.64,0,0,0,.08-.14.94.94,0,0,0,.06-.15l.13-.08a.44.44,0,0,0,.09-.11h.15l0,0s0,0,0,.05c0,.17-.07.35-.1.52S164.69,30,164.64,30.22Zm-6.79,6.07,0-.13a.93.93,0,0,1,0-.13l-.06.26Zm.39-1.1h0l-.11.3h.06Zm1.1-.09a.34.34,0,0,1-.09.08l-.07.06a1.05,1.05,0,0,0-.06.24,2.18,2.18,0,0,1-.06.22.31.31,0,0,1-.07.12.69.69,0,0,0-.06.13.3.3,0,0,0,0,.13l0,.12c.06-.18.12-.36.17-.56A4.3,4.3,0,0,1,159.34,35.1Zm0-4.82,0-.23h0l-.06.23Zm.19,4.13.12-.55s0,0,0,0h-.07A2.31,2.31,0,0,0,159.52,34.41Zm.21-1,0-.21h0l0,.21Zm1.33-1.84a3.39,3.39,0,0,0-.15-.41c0-.14-.11-.28-.17-.41l0,.09a.3.3,0,0,0,0,.18,2.14,2.14,0,0,0,.1.22,1.91,1.91,0,0,0,.14.21Zm.06,0,0,0,0,0,0,0Zm.32,3.4c0-.1-.08-.19-.13-.29a2,2,0,0,1-.14-.3,2.45,2.45,0,0,0,.12.31C161.34,34.79,161.39,34.89,161.44,35Zm.5-1.47,0-.08h0l0,.07Zm.49,3.11,0-.09h-.05l0,.09ZM162.6,33l.15-.65h-.05l-.14.65Zm.12,2.48h0l-.05.09h0Zm.4-2.21.4-1.78c0,.07,0,.17-.08.28s-.07.21-.1.32l-.09.27c0,.08,0,.12,0,.14s-.05.25-.08.4A1.18,1.18,0,0,0,163.12,33.29Zm.27,1h0l-.08.24h0Zm.15-1.19c0-.11.05-.21.07-.32s0-.21,0-.28l-.15.6-.18.58c0-.1.07-.19.12-.29A2.47,2.47,0,0,0,163.54,33.11Zm.4-3.14h0l-.08.21h0Z"/><path class="cls-1" d="M36.46,6l0,0h0C35,5,33.75,4,32.47,3c0,0,0,0,0-.06L30.05,1.41c-.15-.09,0-.28.13-.22s.49.26.74.37c0,0,0,0,0,0l.41.14-.15-.09c-.11-.06,0-.18.07-.2A15.36,15.36,0,0,0,26.83,0c-.71,0-1.43,0-2.14.07A9.16,9.16,0,0,0,22,.69l-.29.1c-.14,0-.24-.17-.1-.23h0C22,.43,22.42.29,22.8.15l-.63.1c-.05,0-.06,0-.09-.06l-.36.06c-.16,0-.23-.21-.07-.25a24,24,0,0,0-4.17,1c-.06.07-.15.12-.22.2.09,0,.15.14.07.2a6.67,6.67,0,0,0-.71.79.13.13,0,0,1,.08.21,8,8,0,0,1-1,.93c.19-.11.37-.22.57-.32a.14.14,0,0,1,.16.21A13.92,13.92,0,0,1,15,4.54s0,.09,0,.12l-.08.06s0,.06,0,.09a8.45,8.45,0,0,1-1.45,1.87,6.27,6.27,0,0,1,.86-.43c.13,0,.2.13.12.22C14,7,13.61,7.52,13.18,8v0A.62.62,0,0,0,13.43,8c.11-.09.3,0,.21.16s-.33.42-.48.63c0,0,0,0,0,.09a3.11,3.11,0,0,1-.23.28c3.55-2.53,7.68-4.23,11.3-4.23,3,0,5.32-.18,8.46,4.93,2.75,4.48.39,14.53-5,20,0,0,0-.06,0-.09s0,0,0-.07-.08,0-.08-.08,0-.07,0-.1a7.43,7.43,0,0,0-.55-1.67,1,1,0,0,0-.69-.47c.07.25.15.5.21.76s-.21.23-.25.07c-.07-.31-.17-.6-.24-.9h0a1,1,0,0,0-.54.15,1.14,1.14,0,0,0-.4,1.53l0,.08a12.18,12.18,0,0,1,.59,2.54c-.48.37-1,.73-1.49,1.05,0-.19-.11-.37-.16-.56a15.33,15.33,0,0,0-.82-2.36,1.12,1.12,0,0,0-.66-.51,1.35,1.35,0,0,0-.29,0,1.1,1.1,0,0,0-.57.15,1.15,1.15,0,0,0-.4,1.53l.05.09.09.25c.06.16.38,1.2.48,1.55s.17.66.27,1a16,16,0,0,1-2.85,1c-.17-1-.33-2.1-.49-3.16a1.12,1.12,0,0,0-.51-.66,1.18,1.18,0,0,0-.59-.15.8.8,0,0,0-.27,0,1.11,1.11,0,0,0-.67.51,1.33,1.33,0,0,0-.11.86c.15,1,.31,1.94.46,2.91-.43,0-.87.06-1.31.06l-.67,0c-4.48-8.9-.46.15-8.36-8.06-5-5.24-.81-12.78,5.61-17.55a.12.12,0,0,1,0-.13c.12-.31.23-.63.33-.95-.11,0-.21-.1-.11-.19s.16-.2.25-.29a6.29,6.29,0,0,0,.11-.74l-.12,0c-.13.08-.24-.09-.15-.2l.25-.27a1.48,1.48,0,0,0,0-.21,1.94,1.94,0,0,1-.33.07.13.13,0,0,1-.11-.2,7.56,7.56,0,0,1,1.47-1.35s0,0,0,0l.08-.08h0c-.08,0-.2,0-.19-.11a1,1,0,0,1,0-.17,4,4,0,0,1-1.45.3.13.13,0,0,1-.09-.22s.05,0,.08,0c-1,0-2,.27-3,.36a25.25,25.25,0,0,0-7.46,8.29,15.66,15.66,0,0,0,.57,16.53A5.21,5.21,0,0,0,4,31.27,22.06,22.06,0,0,0,9,33.94c.22.43.48.94.74,1.48l1,2A5.15,5.15,0,0,0,15,40.22l.94,0c.56,0,1.13,0,1.68-.07,0-.05,0-.1,0-.15s-.08-.32,0-.4,0-.2-.05-.3a.13.13,0,0,1,.23-.1h0a1.66,1.66,0,0,0,0-.22s0,0,0,0l0-.07h0v0c0-.08,0-.13.11-.14a.12.12,0,0,1,.2-.07s0,0,0,.05h0v0a1,1,0,0,1,.07.15s.07,0,.1,0a.35.35,0,0,1,.07.12c0-.07,0-.13,0-.2s.22-.23.24-.07c.07.4.17.79.27,1.18.08,0,.18,0,.27-.06h.28a5.58,5.58,0,0,0,1-.12,3.19,3.19,0,0,0-.32-.64c-.09-.13.13-.26.22-.13v0c-.11-.19-.22-.38-.32-.58s.14-.27.22-.13l.1.15c.06,0,.13,0,.17,0l.13.15,0,0s.06,0,.09.06.14-.22.21-.09a7,7,0,0,1,.41,1,22.39,22.39,0,0,0,2.42-.84c-.18-.36-.36-.73-.52-1.1a.13.13,0,0,1,.05-.17.14.14,0,0,1,.18,0c.16.39.35.76.53,1.13h0v-.05s0,0,0,0L24,38.05c0-.14.18-.23.24-.1l.09.17.07.07s0,.05,0,.07a.54.54,0,0,1,.05.11,5,5,0,0,0,1.24-.8,4.59,4.59,0,0,0,.6-.27,1.65,1.65,0,0,0-.35-.56c-.11-.12.07-.3.18-.18a.47.47,0,0,1,.06.09h0s0,0,0,0a.11.11,0,0,1,.16,0s.06,0,.1,0c-.14-.37-.27-.75-.4-1.12-.05-.16.19-.22.25-.07l.24.62h0c.12.31.24.63.35.94L27,37c.38-.24.78-.54,1.17-.82a5.84,5.84,0,0,1-.4-1.29.13.13,0,0,1,.24-.1c.06.1.09.22.14.32,0-.11.2-.14.23,0l.06.16s0,0,0,0l.19.55.25-.17a5.11,5.11,0,0,0,1.14-1.23,5.17,5.17,0,0,0,1.32-1C38.9,25.87,40.92,14.83,36.46,6ZM19.51,3.39c-.2.19-.44.34-.64.54a.13.13,0,0,1-.18-.18c.2-.2.44-.35.63-.55a.13.13,0,0,1,.19.19Zm3.93-.15-.35.09-.14,0-.07,0h0l0,0a.13.13,0,0,1-.13-.23A5.12,5.12,0,0,1,23.37,3a.13.13,0,0,1,.07.25Zm8.63,2.9a12.05,12.05,0,0,0-2.59-.9c-.17,0-.17-.28,0-.26a12.12,12.12,0,0,1,2.66.91C32.3,5.94,32.23,6.19,32.07,6.14ZM8.63,7.83c.11-.13.29.06.18.18a17.77,17.77,0,0,0-2,2.6c-.09.14-.31,0-.23-.13A18.54,18.54,0,0,1,8.63,7.83ZM5.09,12.18l0,0s0,0,0,0h0l.06-.1a1.56,1.56,0,0,1,.16-.2.12.12,0,0,1,.18,0,.13.13,0,0,1,0,.18l0,0h0v0a.61.61,0,0,0-.07.1l-.15.2a.14.14,0,0,1-.19,0A.14.14,0,0,1,5.09,12.18ZM3.62,24.07a.13.13,0,0,1-.18,0,.25.25,0,0,0,0-.07h0s0,0,0,0l0,0-.05-.05h0l0,0L3,23.71a.13.13,0,0,1,0-.18.13.13,0,0,1,.18,0,1,1,0,0,1,.49.41A.12.12,0,0,1,3.62,24.07Zm-.21-6.24c-.05.16-.3.09-.25-.07.26-.89.37-1.82.63-2.71,0-.16.3-.1.25.06C3.78,16,3.67,16.94,3.41,17.83ZM4.19,14a.13.13,0,0,1,0-.26A.13.13,0,0,1,4.19,14ZM5.61,30.78a.11.11,0,0,1-.17-.05.21.21,0,0,1,0-.06v0s0,0,0,0l0,0,0-.05h0l0,0A2,2,0,0,0,5,30.42a.13.13,0,0,1,0-.18.14.14,0,0,1,.18,0,1,1,0,0,1,.5.4A.14.14,0,0,1,5.61,30.78Zm3.23-.72-.08,0h0s0,0,0,0a.2.2,0,0,1-.22,0,.18.18,0,0,1,0-.27h0v0s0,0,0,0l0,0L8.2,29.6a.12.12,0,0,1,0-.17.12.12,0,0,1,.17-.05l.37.28h0l0,0,.07.05.14.08A.14.14,0,0,1,9,30,.13.13,0,0,1,8.84,30.06Zm1.76,5.07a.13.13,0,0,1-.18,0,.89.89,0,0,1-.09-.26,1.14,1.14,0,0,1,0-.26.13.13,0,1,1,.26,0v.12a.09.09,0,0,0,0,.05v0h0a.36.36,0,0,0,0,.1v0s0,0,0,0V35A.12.12,0,0,1,10.6,35.13Zm2,3.61a.13.13,0,0,1-.18,0l-.28-.27a.13.13,0,1,1,.19-.19l.27.28A.13.13,0,0,1,12.62,38.74Zm-.18-3a.13.13,0,0,1,0,.26A.13.13,0,0,1,12.44,35.71ZM13,32.19a.18.18,0,0,1-.12,0l0,0h0l0,0h0a.13.13,0,0,1-.13-.13.93.93,0,0,1-.23,0,.13.13,0,0,1,0-.26h.07s0,0,0,0h.06l.14,0a.47.47,0,0,1,.31,0,.5.5,0,0,1,.14.15.3.3,0,0,1,0,.21A.17.17,0,0,1,13,32.19Zm1.45,7.56a.12.12,0,0,1-.17,0,5.69,5.69,0,0,1-.38-1.12c0-.16.21-.23.25-.07a5.07,5.07,0,0,0,.35,1.06A.12.12,0,0,1,14.4,39.75Zm3.41-6.25a.35.35,0,0,1-.18-.2s0,0,0-.07h0s0,0,0,0h0a.13.13,0,0,1,0-.18s0,0,0,0a2.25,2.25,0,0,0-.08-.24.13.13,0,0,1,.25-.07,2.3,2.3,0,0,1,.18.67A.13.13,0,0,1,17.81,33.5Zm5.05-2.83a.13.13,0,0,1-.18,0,.41.41,0,0,1-.13-.27.13.13,0,0,1,.26,0h0s0,0,0,0h0l0,0h0A.13.13,0,0,1,22.86,30.67ZM27,30.58a.14.14,0,0,1-.13.13.13.13,0,0,1-.13-.13v-.27a.13.13,0,0,1,.26,0Zm2.86-1.27-.07.08h0l0,0,0,.05-.12.2a2.26,2.26,0,0,0-.11.22v0s0,0,0,0l0,0a.42.42,0,0,0,0,.1.13.13,0,0,1-.16.09.14.14,0,0,1-.09-.16,4,4,0,0,1,.21-.47,1.38,1.38,0,0,1,.28-.4.13.13,0,0,1,.18.18Zm.54,3.08,0,0,0,0-.06.1-.14.26a.13.13,0,0,1-.17,0,.13.13,0,0,1-.05-.18,2.15,2.15,0,0,1,.14-.26.86.86,0,0,1,.15-.22.13.13,0,0,1,.18,0A.12.12,0,0,1,30.38,32.39Zm4.39-19.94A21.53,21.53,0,0,1,35,15a.13.13,0,0,1-.25,0,23.91,23.91,0,0,0-.19-2.54C34.5,12.29,34.75,12.29,34.77,12.45Zm-.4,4.17a.18.18,0,0,1,.17-.06.16.16,0,0,1,.09.09h.1a.13.13,0,0,1,0,.26.35.35,0,0,1-.29-.12h0s0,0-.06,0A.13.13,0,0,1,34.37,16.62Zm-2.09,9.53,0,0h0a.43.43,0,0,1,0,0v.05h0v0a.13.13,0,0,1-.12.13.13.13,0,0,1-.13-.13.62.62,0,0,1,.07-.29l.13-.23a.13.13,0,0,1,.17-.05.13.13,0,0,1,0,.18C32.36,26,32.31,26.08,32.28,26.15Zm.44-1.62a3,3,0,0,0,.35-1,.13.13,0,0,1,.25.06,3.26,3.26,0,0,1-.38,1,.13.13,0,0,1-.17.05A.13.13,0,0,1,32.72,24.53Zm2.3.76s0,0,0,.06a1.35,1.35,0,0,1,0,.29v0h0s0,.05,0,.07a.13.13,0,0,1-.24-.07,1.42,1.42,0,0,1,0-.19,6,6,0,0,0-.73.7,9.48,9.48,0,0,1-1,1.13c-.11.11-.3-.07-.18-.19s.35-.39.53-.59h0A4.62,4.62,0,0,1,34.46,25a.13.13,0,0,1,.2.16c0,.05-.07.1-.1.16a3.47,3.47,0,0,1,.29-.25.13.13,0,0,1,.19.11C35,25.19,35,25.24,35,25.29ZM35.66,20c0,.09-.22.08-.23,0a3.31,3.31,0,0,1,0-.77c-.1,0-.23,0-.15-.15a3,3,0,0,0,.35-.87.12.12,0,0,1,.24.06l0-.05h0l0-.06c.1-.1.24,0,.22.13A6.21,6.21,0,0,1,35.66,20Zm1.74,2c-.28,1-.72,2-1,3a.13.13,0,0,1-.25,0V24.6c0-.1.07-.12.15-.11.06-.21.13-.42.2-.62-.08,0-.21,0-.17-.12A17.85,17.85,0,0,0,37.12,21a9,9,0,0,0,.12-2.88c0-.16.22-.23.25-.06a10.11,10.11,0,0,1-.32,3.86C37.23,21.78,37.43,21.87,37.4,22Zm-.71-8.52h0s0,0,0,0,.1-.12.18-.09.17,0,.17.09v.36s0,0,0,0c0,.22.06.44.11.66a.13.13,0,0,1-.21.13,2.42,2.42,0,0,1-.49-1.15c0-.16.21-.23.25-.07l0,.13A.13.13,0,0,0,36.69,13.48Zm1-.27a12.39,12.39,0,0,0-.94-2.64,11,11,0,0,0-1.47-2.38c-.11-.12.07-.31.18-.18A11.13,11.13,0,0,1,37,10.44a13,13,0,0,1,1,2.7C38,13.3,37.73,13.37,37.69,13.21Z"/><path class="cls-1" d="M21.42,20.25c.06,2.56,1,3,1.84,3.19C24.87,21.88,21.6,21,21.42,20.25Z"/><path class="cls-1" d="M14.25,15.36c-1.74,0-3.07,3.19-3.34,4.33.22,1.85,1,2.55,1.9,2.55,1.82,0,4.2-2.81,3.85-4.73C15.81,16,15,15.36,14.25,15.36Z"/><path class="cls-1" d="M20.64,20.48C18.74,22.2,19,23.24,19.43,24h.2C21.57,24,20.21,21.08,20.64,20.48Z"/><path class="cls-1" d="M26.39,13.16c-4.44,1.55-1.75,6.5.43,6.5.95,0,1.79-.92,1.94-3.41C28.73,14.37,27.73,13.22,26.39,13.16Z"/></g></g></svg>